<?xml version="1.0" encoding="UTF-8"?>
<svg id="Capa_3" xmlns="http://www.w3.org/2000/svg" xmlns:xlink="http://www.w3.org/1999/xlink" version="1.1" viewBox="0 0 1500 1500">
  <!-- Generator: Adobe Illustrator 29.5.0, SVG Export Plug-In . SVG Version: 2.1.0 Build 137)  -->
  <defs>
    <style>
      .st0 {
        fill: #9b7c67;
      }

      .st1 {
        fill: url(#Degradado_sin_nombre_2);
      }

      .st1, .st2 {
        opacity: .62;
      }

      .st1, .st2, .st3 {
        isolation: isolate;
      }

      .st2 {
        fill: url(#Degradado_sin_nombre_3);
      }

      .st4 {
        fill: #141414;
      }

      .st5 {
        fill: url(#Degradado_sin_nombre);
      }

      .st6 {
        fill: #fff7e6;
      }

      .st7 {
        fill: #754b2e;
      }

      .st3 {
        fill: #bfbe9d;
        opacity: .4;
      }
    </style>
    <linearGradient id="Degradado_sin_nombre" data-name="Degradado sin nombre" x1="589.866" y1="1359.548" x2="934.69" y2="579.946" gradientTransform="translate(0 1500) scale(1 -1)" gradientUnits="userSpaceOnUse">
      <stop offset=".097" stop-color="#d8d7ba"/>
      <stop offset=".107" stop-color="#c8c7ac"/>
      <stop offset=".139" stop-color="#a09f8a"/>
      <stop offset=".173" stop-color="#7c7c6c"/>
      <stop offset=".21" stop-color="#5f5e53"/>
      <stop offset=".251" stop-color="#46463e"/>
      <stop offset=".297" stop-color="#34332e"/>
      <stop offset=".351" stop-color="#262623"/>
      <stop offset=".421" stop-color="#1f1f1c"/>
      <stop offset=".561" stop-color="#1d1d1b"/>
      <stop offset=".68" stop-color="#1f1f1c"/>
      <stop offset=".743" stop-color="#272622"/>
      <stop offset=".792" stop-color="#34332b"/>
      <stop offset=".834" stop-color="#474638"/>
      <stop offset=".872" stop-color="#605e49"/>
      <stop offset=".907" stop-color="#7f7c5f"/>
      <stop offset=".94" stop-color="#a39f78"/>
      <stop offset=".97" stop-color="#cdc795"/>
      <stop offset=".998" stop-color="#fbf4b5"/>
      <stop offset="1" stop-color="#fff8b8"/>
    </linearGradient>
    <linearGradient id="Degradado_sin_nombre_2" data-name="Degradado sin nombre 2" x1="0" y1="750.001" x2="602.21" y2="750.001" gradientTransform="translate(0 1500) scale(1 -1)" gradientUnits="userSpaceOnUse">
      <stop offset="0" stop-color="#d8d7ba"/>
      <stop offset="1" stop-color="#fff8b8"/>
    </linearGradient>
    <linearGradient id="Degradado_sin_nombre_3" data-name="Degradado sin nombre 3" x1="1678.851" y1="718.691" x2="766.95" y2="790.684" gradientTransform="translate(0 1500) scale(1 -1)" gradientUnits="userSpaceOnUse">
      <stop offset="0" stop-color="#d8d7ba"/>
      <stop offset="1" stop-color="#fff8b8"/>
    </linearGradient>
  </defs>
  <rect class="st6" x="0" y=".494" width="1499.999" height="1499.011"/>
  <path class="st7" d="M1200.98,1370.571l16,128.935H450.981l-11-66.976-9,66.976h-180l12-134.931-50-19.987s22-67.955,44-159.895c22-91.939,50-179.881,68-209.862,14.12-23.524,150.17-63.048,233.22-91.54,24.71,26.972,67.89,63.758,130.78,81.546,91.37,25.843,234.74-.29,268.74-48.958,57.19,18.957,137.25,40.293,161.26,50.956,36,15.989,72,113.925,84,159.895,12,45.97,60,217.856,60,217.856l-62,25.983v.002Z"/>
  <path class="st0" d="M957.72,915.88c-34,48.668-177.37,74.801-268.74,48.958-62.89-17.788-106.07-54.574-130.78-81.546,22.79-7.805,41.59-14.79,52.78-20.387,52-25.983,56-139.908,56-139.908l204-15.989-13.547,94.199c-5.057,35.164,12.233,69.754,43.37,86.894,21.441,11.802,44.242,23.58,56.917,27.78h0Z"/>
  <path class="st5" d="M1064.52,768.617s24.46-38.625,14.46-95.587c-5.7-32.489-20.51-60.74-33.85-84.215,5.95,19.457,11.55,37.595,15.85,56.233,12,51.966-8,115.924-38,133.912-18.46,11.063-44.47,22.885-78.53,24.754,3.94-20.047-11.47-39.744-11.47-39.744,3.31,17.229-4.72,32.778-9.4,39.634-16.01-1.029-33.54-4.297-52.6-10.653-9.41-3.138-19.57-5.826-30.13-8.135-13.91-3.048-28.51-5.426-42.98-7.285-25.87-3.328-51.31-4.997-71.65-5.816-21.98-.899-38-.809-42.17-.76-.7,0-1.07.01-1.07.01l-50.47-9.284c-22.24-4.087-42.79-14.65-59-30.39-16.87-16.379-25.19-30.37-25.19-30.37-3.33,21.126,19.96,48.268,20.64,49.058-1.53-.76-85.93-43.591-79.98-110.927,6-67.955,48-175.884,78-225.851,30-49.967,8-115.924,82-183.879,21.91-20.117,55.4-32.998,85.91-41.103,56.79-15.1,117.32-9.514,169.64,17.229,48.77,24.934,74.62,59.711,88.71,96.906,14.09,37.195,16.42,76.809,18.15,111.417,0,0,13.02,110.737,53.13,176.454,40.1,65.727,41.53,168.049,0,178.392h0Z"/>
  <polygon class="st0" points="1095.134 1499.505 1095.134 1402.488 1200.98 1370.571 1216.98 1499.505 1095.134 1499.505"/>
  <polygon class="st0" points="439.981 1432.53 262.981 1364.575 250.981 1499.505 430.981 1499.505 439.981 1432.53"/>
  <path class="st4" d="M726.22,771.715c-21.98-.899-38-.809-42.17-.76-39.59-120.521,14.17-307.078,14.17-307.078-18.97,173.046,10.36,268.383,28,307.837h0Z"/>
  <path class="st4" d="M840.85,784.817c-13.91-3.048-28.51-5.426-42.98-7.285-4.17-14.271-8.47-33.498-11.61-58.561-8.42-67.336,13.69-148.342,12.64-186.217,0,0,7.37,39.984,5.26,104.151-1.45,44.461,22.09,111.147,36.69,147.913h0Z"/>
  <path class="st1" d="M602.21.494s-117.69,1410.201-129.459,1499.011H0V.494h602.209Z"/>
  <path class="st2" d="M873.1.494s91.58,923.745,156.438,1146.447c64.858,222.702,34.979,352.564,34.979,352.564h435.484V.494h-626.901Z"/>
  <path class="st3" d="M983.687.494s92.56,779.13,138.84,937.7c46.28,158.57,33.53,561.312,33.53,561.312h154.896s-63.686-511.759-124.403-832.2C1125.833,346.862,1095.134.494,1095.134.494h-111.447Z"/>
  <path class="st3" d="M1367.15,1499.505s-33.057-234.262-33.057-415.956,6.611-930.59-23.14-1083.055h92.56s42.974,590.83,33.057,782.434c-9.917,191.605-19.834,603.968,29.751,716.578h-99.171,0Z"/>
  <path class="st3" d="M365.838.494s26.129,300.119-.317,571.009c-26.446,270.89-85.857,812.09-64.415,928.003h61.11s46.28-620.653,66.114-792.497C448.164,535.163,494.443,129.834,464.692.494h-98.854Z"/>
  <path class="st3" d="M133.275-.493s15.189,502.965-26.581,750.493c-41.77,247.529-53.162,610.169-45.567,749.505h113.881s-64.59-290.033,0-695.791C239.598,397.956,228.207-.493,228.207-.493h-94.932,0Z"/>
</svg>