<?xml version="1.0" encoding="UTF-8"?>
<svg id="Capa_1" xmlns="http://www.w3.org/2000/svg" xmlns:xlink="http://www.w3.org/1999/xlink" version="1.1" viewBox="0 0 1800 1500">
  <!-- Generator: Adobe Illustrator 29.5.0, SVG Export Plug-In . SVG Version: 2.1.0 Build 137)  -->
  <defs>
    <style>
      .st0 {
        fill: #197222;
      }

      .st1 {
        isolation: isolate;
        opacity: .6;
      }

      .st1, .st2 {
        fill: #1d1d1b;
      }

      .st3 {
        fill: #d3a172;
      }

      .st4 {
        fill: #ffeedc;
      }

      .st5 {
        fill: #1baf79;
      }

      .st6 {
        fill: #ff9b40;
      }

      .st7 {
        fill: #f21414;
      }

      .st8 {
        fill: none;
      }

      .st8, .st9 {
        stroke: #1d1d1b;
        stroke-miterlimit: 10;
        stroke-width: 1.05px;
      }

      .st10 {
        fill: url(#Degradado_sin_nombre);
      }

      .st11 {
        fill: #fff4eb;
      }

      .st12 {
        fill: #1a8722;
      }

      .st9 {
        fill: #fff;
      }
    </style>
    <linearGradient id="Degradado_sin_nombre" data-name="Degradado sin nombre" x1="831.999" y1="400.493" x2="939.17" y2="965.577" gradientTransform="translate(0 1500) scale(1 -1)" gradientUnits="userSpaceOnUse">
      <stop offset="0" stop-color="#ff9b40"/>
      <stop offset=".073" stop-color="#d38035"/>
      <stop offset=".177" stop-color="#9c5f27"/>
      <stop offset=".282" stop-color="#6c411b"/>
      <stop offset=".386" stop-color="#452a11"/>
      <stop offset=".488" stop-color="#271709"/>
      <stop offset=".587" stop-color="#110a04"/>
      <stop offset=".683" stop-color="#040201"/>
      <stop offset=".772" stop-color="#000"/>
    </linearGradient>
  </defs>
  <g id="Capa_11" data-name="Capa_1">
    <rect class="st5" width="1800" height="1500"/>
  </g>
  <g id="Capa_2">
    <g>
      <path d="M504.274,572.469s-43.696,191.59-100.837,297.469-85.711,255.453,0,310.914,732.748,114.282,798.292,90.753c65.544-23.529,99.156-152.936,82.35-262.176s-19.988-233.605,4.291-312.594-4.291-104.198-34.542-117.643-749.554-6.722-749.554-6.722h0Z"/>
      <path d="M489.536,583.204s.227,145.689-112.271,269.357c-121.729,133.815-105.381,326.049,23.725,371.233,0,0-211.929-126.05-3.868-372.96,168.727-200.231,185.204-338.882,185.204-338.882l-92.789,71.252h0Z"/>
      <path class="st12" d="M1390.279,1500c-7.381-29.976-33.038-125.09-69.643-162.029-22.888-23.098-109.261-73.275-186.349-115.837-33.518-18.508-65.281-35.566-89.304-48.339-26.239-13.96-43.265-22.793-43.265-22.793l-22.825,33.612s16.501,30.703,31.501,67.004c16.145,39.043,30.535,84.567,20.735,105.259-18.907,39.915-67.225,117.643-67.225,117.643l-14.443-9.8-35.577-24.127-11.932-8.088-116.614-177.704-8.981-4.412-287.228-141.119s-205.876,115.259-245.79,155.173c-8.97,8.97-19.107,26.27-29.432,47.708-29.781,61.802-61.128,157.946-70.617,187.847h1246.988v.002Z"/>
      <path class="st2" d="M939.556,1498.491s82.116-51.902,104.72-71.414c22.604-19.512,19.057-50.432,19.057-50.432l85.439,44.307s-105.814-115.529-104.495-122.995-46.575,61.714-46.575,61.714c0,0,.33,42.981-15.55,83.209-22.391,18.161-30.564,40.758-42.595,55.611h0Z"/>
      <path class="st2" d="M939.556,1498.491s-129.844-145.916-146.714-142.368c-11.563,2.432-81.864,59.027-124.953,94.397-16.683,13.694-41.876,7.025-49.612-13.125l-70.099-182.596,108.979,80.039,156.501-36.88s108.552,167.292,125.898,200.534h0Z"/>
      <path d="M1284.073,712.425s-1.741,128.942,13.418,184.402,63.904,278.982-52.062,357.971c0,0,108.827-85.711,37.605-368.054-71.222-282.343,37.605-252.092,37.605-252.092l-36.566,77.773h0Z"/>
      <path class="st0" d="M1148.772,1420.952c-5.252,2.101-89.283-88.232-98.736-82.98s-13.655,47.267-30.461,74.577c-16.68,27.1-79.031,85.029-80.008,85.932.157-.462,4.674-12.92,9.895-33.76,10.661-42.52,24.275-119.933,9.989-201.558-4.086-23.413-10.483-47.162-19.894-70.544l24.474-95.186h19.831s41.595,47.414,61.122,76.363c2.405,3.582,4.485,6.88,6.103,9.769,3.939,7.027,13.14,27.163,24.411,52.918,30.839,70.439,77.119,182.935,73.275,184.469h-.001Z"/>
      <path class="st1" d="M1134.287,1222.135c-17.741,4.496-38.087,9.432-58.79,14.348-22.226,5.262-44.851,10.504-65.103,15.136-20.294,4.653-38.213,8.687-50.944,11.544-4.086-23.413-10.483-47.162-19.894-70.544l24.474-95.186h19.831s41.595,47.414,61.122,76.363c24.022,12.773,55.786,29.831,89.304,48.339h0Z"/>
      <path class="st6" d="M939.556,1498.491s-56.795-95.056-127.381-180.767c-70.586-85.712-205.381-281.403-205.381-281.403,33.003-36.385,47.688-106.866,54.126-167.873,6.355-60.156,4.695-111.11,4.695-111.11l313.267,282.344-30.871,120.038-8.456,32.898s31.932,65.544,38.654,142.852c6.722,77.308-38.654,163.02-38.654,163.02h0Z"/>
      <path d="M978.882,1039.683l-30.871,120.038c-172.788,14.537-270.936-294.822-270.936-294.822l-16.155,3.55c6.355-60.156,4.695-111.11,4.695-111.11l313.267,282.344h0Z"/>
      <path class="st6" d="M1245.428,638.015s-21.848,142.852-58.822,238.984c-2.71,7.048-5.525,14.264-8.445,21.596-36.9,92.549-91.257,202.21-183.145,209.993-38.843,3.288-73.821-5.536-105.532-21.134-49.242-24.222-90.617-64.756-126.393-101.551-58.822-60.502-90.753-193.271-90.753-193.271-104.198,0-80.67-147.894-80.67-147.894,45.377-112.601,653.76-6.722,653.76-6.722h0Z"/>
      <path class="st8" d="M623.597,653.139s48.738,32.356,45.377,68.277l10.084,16.696s65.544-34.554,48.738-93.376-104.198,8.403-104.198,8.403h0Z"/>
      <path class="st8" d="M657.212,738.106c.084.01.147.053.189.105-.242-.084-.305-.126-.189-.105Z"/>
      <path class="st10" d="M1245.428,638.015s-21.848,142.852-58.822,238.984c-2.71,7.048-5.525,14.264-8.445,21.596-87.15,63.16-200.813,141.676-288.677,188.859-49.242-24.222-90.617-64.756-126.393-101.551-58.822-60.502-90.753-193.271-90.753-193.271-104.198,0-80.67-147.894-80.67-147.894,45.377-112.601,653.76-6.722,653.76-6.722h0Z"/>
      <path class="st3" d="M153.306,473.505s-1.771,3.678-1.935,10.538c-.333,13.953,6.486,27.132,17.844,35.244,68.048,48.598,315.238,162.934,639.466,202.128,782.68,94.613,848.027-30.321,848.027-30.321l-.172-32.882L153.306,473.505Z"/>
      <path class="st4" d="M1240.383,453.146c3.361-1.681,255.453,97.476,336.123,137.81s126.046,84.031,10.084,121.004c-115.962,36.974-699.135,55.46-1137.776-90.753C10.173,474.994,173.693,442.794,230.679,425.31c73.601-22.582,354.264-56.194,411.405-47.791,57.141,8.403,598.298,75.628,598.298,75.628h.001Z"/>
      <path class="st9" d="M669.605,975.737"/>
      <path class="st0" d="M939.556,1498.491s-118.505-168.923-135.311-175.225-154.407,94.535-167.011,98.736c-3.487,1.166-16.281-20.083-33.003-52.015-43.749-83.579-114.345-240.402-115.101-260.716-1.05-28.077,94.535-124.229,117.643-141.035s40.209-18.308,40.209-18.308c0,0,98.904,182.368,156.507,282.785,15.987,27.888,28.802,49.452,35.419,59.042,18.539,26.848,51.784,97.581,74.977,148.84,14.916,32.982,25.671,57.897,25.671,57.897h0Z"/>
      <path class="st7" d="M1069.363,534.216c-243.689,16.806-517.63-124.366-517.63-124.366,0,0,12.846-49.736,30.178-111.236,80.071,38.854,401.436,178.145,706.51,76.226,4.527,54.757,7.825,98.873,7.825,98.873,0,0,16.806,43.696-226.883,60.502h0Z"/>
      <path class="st4" d="M1288.421,374.841c-305.074,101.919-626.439-37.373-706.51-76.226,20.22-71.794,46.543-159.617,65.618-203.04,3.802-8.645,9.128-16.228,15.735-22.856,78.065-78.495,333.834-24.201,333.834-24.201,213.344,53.727,255.79,100.028,267.092,116.54.714,1.05,1.302,1.985,1.807,2.784,5.136,8.225,15.304,120.794,22.426,207h-.002Z"/>
      <path class="st1" d="M803.489,1232.712c-7.972,4.454-17.058,10.493-27.131,17.678-42.761,30.503-113.518,46.909-182.329,84.933-55.313,30.577-105.761,87.393-166.788,83.675-91.919-5.609-164.648-57.866-213.333-106.845,10.325-21.438,20.461-38.738,29.432-47.708,39.915-39.915,245.79-155.173,245.79-155.173-1.05-28.077,94.535-124.229,117.643-141.035,23.108-16.806,40.209-18.308,40.209-18.308,0,0,98.904,182.368,156.507,282.785v-.002Z"/>
      <path class="st11" d="M1264.188,165.058c-84.472,34.011-363.381,7.437-451.046-22.184-63.422-21.417-118.326-49.757-149.88-70.155,78.065-78.495,333.834-24.201,333.834-24.201,213.344,53.727,255.79,100.028,267.092,116.54Z"/>
    </g>
  </g>
</svg>