<?xml version="1.0" encoding="utf-8"?>
<!-- Generator: Adobe Illustrator 27.9.5, SVG Export Plug-In . SVG Version: 9.03 Build 54986)  -->
<svg version="1.1" id="Layer_1" xmlns="http://www.w3.org/2000/svg" xmlns:xlink="http://www.w3.org/1999/xlink" x="0px" y="0px"
	 viewBox="0 0 2000 2000" style="enable-background:new 0 0 2000 2000;" xml:space="preserve">
<style type="text/css">
	.st0{fill:#DB4F42;}
	.st1{fill:#4CA559;}
	.st2{fill:#F5ECE8;}
	.st3{fill:#BC6A46;}
	.st4{fill:#F7C0AA;}
	.st5{fill:#E8A80A;}
	.st6{fill:#FFDEBB;}
	.st7{fill:#89CC91;}
	.st8{fill:#B4C951;}
	.st9{fill:#DDE09C;}
	.st10{fill:#543E0D;}
	.st11{fill:#EFBE52;}
	.st12{fill:#2E8938;}
	.st13{fill:#E6EDEA;}
	.st14{fill:#FFE4C0;}
	.st15{fill:#FFFBE6;}
	.st16{fill:none;}
	.st17{fill:#6D9E73;}
	.st18{fill:#E89C5D;}
	.st19{fill:#FFC89F;}
	.st20{fill:#82A04A;}
	.st21{fill:#EF8B86;}
	.st22{fill:#647C2E;}
	.st23{fill:#F3C433;}
	.st24{fill:#703E52;}
	.st25{fill:#93576F;}
	.st26{fill:#C7D8A9;}
	.st27{fill:#E5755E;}
	.st28{fill:#FCD3B9;}
	.st29{fill:#8EC4EE;}
	.st30{fill:#F9DF70;}
	.st31{fill:#6D6BA5;}
	.st32{fill:#64996B;}
	.st33{fill:#F46C73;}
	.st34{fill:#3D3A2C;}
	.st35{fill:#F7BB72;}
	.st36{fill:#FFFFFF;}
	.st37{fill:#BC7D4A;}
	.st38{fill:#FF979F;}
	.st39{fill:#C96FC5;}
	.st40{fill:#467F4A;}
	.st41{fill:#846D56;}
	.st42{fill:#F7C472;}
	.st43{fill:#FF7F8A;}
	.st44{fill:#F8FFF9;}
	.st45{fill:#BBCFE9;}
	.st46{fill:#AEC15F;}
	.st47{fill:url(#);}
	.st48{fill:#FFF6D2;}
	.st49{fill:#3A845C;}
	.st50{fill:#EA717E;}
	.st51{fill:#F2C56B;}
	.st52{fill:#775B63;}
	.st53{fill:#F67371;}
	.st54{fill:#D34C4C;}
	.st55{fill:#FD7297;}
	.st56{fill:#B298D0;}
	.st57{fill:#FC8888;}
	.st58{fill:#563B44;}
	.st59{fill:#7FB284;}
	.st60{fill:#D15466;}
	.st61{fill:#FFAC92;}
	.st62{fill:#FFBA5F;}
	.st63{fill:#FFBD6E;}
	.st64{fill:#EAB783;}
	.st65{fill:#E8DAA3;}
	.st66{fill:#447749;}
	.st67{fill:#FC7B65;}
	.st68{fill:#EAB063;}
	.st69{fill:#F48D64;}
	.st70{fill:#DB6453;}
	.st71{fill:#83CC8A;}
	.st72{fill:#66AD6B;}
	.st73{fill:#FFFAE6;}
</style>
<g>
	<rect class="st14" width="2000" height="2000"/>
	<g>
		<path class="st16" d="M1968.58,992.19c1.6-0.68,3.19-1.35,4.77-2c4.64,10.35,3.98,32.23-1.84,48.26
			c10.27,6.16,19.91,13.83,28.49,20.96v-135.7c-0.77,1.61-1.54,3.22-2.3,4.84C1987.77,949.61,1977.99,970.87,1968.58,992.19z"/>
		<path class="st16" d="M962.04,1962.6c1.34-86.52,62.85-186.79,125.67-230.84c26.78,53.67,3.44,122.29-10.28,172.88
			c37.47-53.19,75.6-69.85,128.97-97.85c1.87,34.02-9.76,84.49-33.08,119.37c40.96-31.39,91.67-33.84,143.69-32.87
			c-15,32.51-40.98,71.61-73.22,106.71h389.8c-3.57-3.51-6.9-7.27-9.95-11.32c-19.26-25.66-22.73-65.5-0.1-88.24
			c20.75-20.86,58.55-24.44,69.46-51.76c11.3-28.3-15.89-60.79-5.96-89.6c6.36-18.46,26.91-29.11,46.43-29.42
			s38.17,7.69,55.53,16.62c40.87,21.01,78.53,48.17,111.58,80.1c-10.21-38.48-16.17-73.37-17.81-92.05
			c-2.8-31.96-1.95-65.86,14.05-93.67c16-27.81,51.26-46.68,81.07-34.84c7.99,3.17,15.19,8.26,22.11,13.86v-418.12
			c-29.54-10.17-58.75-20.27-87.16-34.25c-20.14-9.91-55.72-27.11-61.88-51.93c-3.51-14.14,8.25-30.89,22.14-34.92
			c16.21-4.71,44.6,5.99,58.07,15.26c-8.78-6.5-23.93-21.64-29.73-33.53c-7.64-5.01-14.15-11.66-22.37-16.63
			c0.51-0.41,1.04-0.82,1.56-1.23c-6.7-1.15-13.41-2.32-20.22-2.95c-51.61-4.75-99.03-6-148.82-22.22
			c-27.53-8.97-66.9-20.74-82.52-47.22c-8.17-13.85-9.8-37.78,6.93-44.08c12.28-4.62,42.18,2.09,55.57,7.28
			c-16.65-7.07-43.76-26.68-49.46-43.62c-4.89-14.52,3.03-33.89,17.97-38.27c26.22-7.7,63.62,14.86,84.96,27.54
			c16.72,9.94,32.5,20.74,47.93,31.96c-13.82-14.1-26.87-29.14-38.78-46.31c-16.5-23.79-40.75-56.96-37.19-87.5
			c1.86-15.97,15.03-36.02,32.17-30.92c12.58,3.74,32.34,27.17,39.86,39.39c-8.98-15.7-18.73-47.71-13.03-64.65
			c4.88-14.52,22.9-25.16,37.45-19.62c25.54,9.72,41.69,50.3,51.02,73.3c15.48,38.16,37.23,85.34,51.58,126.96
			c-5.16-33.15-9.19-65.35-5.97-100.07c2.47-26.66,4.98-64.6,27.15-83.61c11.59-9.95,34.46-15.77,44.36-1.7
			c7.27,10.33,7.52,38.74,5.51,51.85c1.72-9.11,6.45-21.84,12.91-32.78V615.9c-25.19-3.13-49.89-12.27-72.02-24.95
			c-17.56-10.06-56.33-59.19-69.56-76.34c-26.06-0.28-48.77,4.83-67.91,15.36l-3.99-7.24c20.5-11.29,44.72-16.74,72.41-16.37
			c19.06-8.66,87.11-38.5,116.78-36.79c8.13,0.47,16.27,1.41,24.27,2.96v-253c-17.39,48.68-39.64,92.85-52.06,112.72
			c-17,27.21-38.08,53.77-67.59,66.35c-29.51,12.58-69.03,6.43-85.72-20.97c-15.3-25.13-9.75-62.69-33.68-79.81
			c-24.78-17.73-62.82,0.91-88.43-15.6c-16.41-10.58-21.85-33.08-17.49-52.11c4.36-19.03,16.58-35.23,29.39-49.95
			c42.74-49.13,95.93-89.05,154.81-116.83c-56.2-4.56-110.87-16.92-135.03-24.86c-25.66-8.43-51.58-19.78-70.62-38.47h-389.8
			c-28.54,31.06-61.99,58.97-97.1,76.38c2.4,1.64,4.71,3.24,6.93,4.8c-29.3,17.54-47.54,36.5-81.9,43.53
			c-23.58,4.82-44.84-0.09-62.92-10.31c-4.08,5.04-7.9,9.52-9.34,11.82c-15.02,24.08-25.92,49.69-36.98,75.18
			c22.68-18.34,54.68-32.8,78.13-32.34c25.13,0.5,58.79,14.61,78.4,30.78c-37.5,20.83-82.6,71.85-129.9,64.06
			c-10.2-1.68-32.61-13.65-42.9-26.56c-4.16,8.56-8.58,17.01-13.42,25.28c-11.94,20.41-26.54,39.8-40.34,59.26
			c-6.48,9.13-13.87,23.84-24.08,23.26c-8.51-0.49-19.09-13.3-25.77-18.01c26.36-27.32,49.7-58.6,69.78-91.4
			c-19.97-8.74-41.36-27.71-53.07-43.32c-24.29-32.39-19.63-82.1,15.79-143.78c8.98,31.3,25.52,47.67,42.87,71.14
			c14.07,19.02,14.29,54.07,10.55,87.89c9.67-18.11,18.38-36.61,29.03-54.06c10.67-17.47,25.64-32.31,35.74-49.79
			c-34.53-27.98-53.16-74.3-47.28-95.14c0.83-2.96,1.56-5.84,2.21-8.67H786.67c-6.32,13.57-18.49,24.5-34.28,25.64
			C737.2,26.73,722.54,15.03,713.3,0h-68.25c-8,4.25-17.27,7.43-26.48,10.79c-6.71,2.45-9.02,4.55-16.03,2.66
			C594.71,11.33,583.38,6,577.14,0H428.95c-1.59,10.06-6.29,19.91-12.93,27.68C403.34,42.52,385,51.2,366.82,58.31
			c-54.83,21.43-113.73,32.24-172.59,32.13c47.29,29.98,89.54,65.91,107.14,84.02c22.36,23,43.12,49.82,48.29,81.48
			c5.17,31.66-10.24,68.57-40.83,78.23c-28.06,8.86-63.21-5.5-85.55,13.65c-23.14,19.83-14.11,61.22-36.26,82.15
			c-14.19,13.41-37.34,13.32-54.78,4.54S102.01,410,90.76,394.04C48.19,333.61,20.35,262.95,9.77,189.81
			c-2.98,9.98-6.28,19.93-9.77,29.71v253c11.77,2.29,23.24,5.92,33.86,11.44c17.74,9.22,32.43,23.26,46.86,37.11
			c17.83,17.12,35.66,34.23,53.48,51.35c-28.15,17.87-57.18,36.11-89.94,42.31c-14.64,2.77-29.54,2.99-44.26,1.16v121.17
			c5.19-8.79,11.49-16.43,18.24-20.11c12.99-7.08,33.58-3.4,41.22,9.39c13.41,22.45-0.02,60.55-7.5,82.25
			C38.07,848.93,18.3,885.38,0,923.72v135.7c2.67,2.22,5.24,4.39,7.69,6.44c26.16,21.88,45.54,47.01,64.8,73.58
			c-18.71-38.77-36.12-86.51-51.67-123.67c-9.37-22.39-26.12-61.69-15.09-86.04c6.29-13.87,26.12-18.89,39.52-12.18
			c15.63,7.83,30.93,36.77,35.51,53.85c-3.2-13.67-5.63-43.54,0.52-54.81c8.38-15.34,31.34-10.5,43.64-0.7
			c23.51,18.75,29.54,58.48,34.48,86.36c3.56,20.13,4.86,39.56,4.99,58.87c2.97-18.42,6.48-36.79,11.25-55.21
			c6.08-23.5,16.49-64.93,39.99-77.66c13.39-7.25,32.23,0.74,38.84,14.19c7.72,15.69,2.41,47.98-4.28,64.36
			c5.71-12.82,21.84-38.09,33.55-43.34c15.95-7.15,31.32,10.58,35.18,25.83c7.4,29.15-11.82,64.44-24.75,89.64
			c-23.38,45.57-55.44,79.11-87.99,117.97c-4.29,5.13-8.14,10.56-12,15.97c0.64-0.07,1.29-0.16,1.93-0.23
			c-3.84,15.34-1.03,30.69-11.92,44.23c-2.44,3.03-5.52,5.75-8.99,8.13c12.21,38.13,5.36,79.53,12.34,119.58
			c7.31,41.95,22.15,82.65,39.3,121.83c-11.98,6.59-23.96,14.07-36.33,13.18c-7.5-4.72-17.07-45.95-19.91-56.63
			c-7.25-27.27-10.23-58.7-9.67-88.4c0.64-33.84,2.94-69.87-7.62-100.26c-3.39,0.74-6.76,1.18-9.95,1.28
			c-17.95,0.52-45.44-22.08-50.84-36.39c1.54-0.64,3.11-1.27,4.69-1.9c-21.21-8.32-42.66-16.34-64.06-24.11
			c-0.23-0.08-0.46-0.16-0.69-0.25c10.22,41.12,17.56,82.63,30.99,124.49c22.39,69.79,53.02,139.26,85.8,206.75
			c-11.58,8.03-22.86,17.5-37.39,13.29c-10.2-9.35-34.95-78.49-41.77-96.47c-17.43-45.94-31.33-97.67-40.58-145.81
			c-7.06-36.75-13.6-74.92-23.84-111.68c-1.89-0.65-3.78-1.3-5.67-1.96v418.12c16.8,13.57,31.99,30.13,52.82,29.61
			c30.46-0.75,49.62-38.54,80.01-40.76c19.47-1.42,37.36,13.27,45.33,31.09c7.97,17.82,7.96,38.11,6.59,57.58
			c-3.37,47.89-14.29,95.2-31.93,139.85c20.85-16.21,39.31-28.79,51.05-35.67c27.68-16.22,58.67-29.98,90.65-27.44
			c31.98,2.54,64.14,26.31,66.22,58.32c1.91,29.36-20.43,60.06-7.17,86.33c13.74,27.2,56.08,28.32,71.12,54.83
			c4.59,8.1,5.71,17.44,4.26,26.6h148.19c-0.49-0.47-0.96-0.94-1.38-1.42c-14.2-16.05-7.9-39.58,0.44-56.75
			c11.47-23.6,52.73-38.42,71.61-15.21c12.71,14.31,20.09,25.29,20.3,36.48c0.35,19.44-9.52,29.71-23.06,36.9h68.25
			c-8.11-13.2-12.04-28.96-8.48-40.89c6.5-21.75,39.5-43.42,56.71-20c12.34,4.68,17.88,5.86,19.93,7.83
			c6.55,6.33,8.82,18.59,9.77,27.19c0.94,8.54-0.75,17.68-4.56,25.86h161.57c3.36-14.57,4.68-27.61,7.74-41.47
			C957.82,1959.78,959.86,1961.14,962.04,1962.6z M1056.33,1545.12c-13.91,15.37-41.89,20.75-58.38,4.66
			c-18.59-18.13-5.41-62.2,16.51-72.4c18.69-8.69,53.29,0.66,47.76,26.46c4.26,11.2,6.8,15.67,6.69,18.25
			C1068.56,1530.37,1061.61,1539.3,1056.33,1545.12z M1194.5,1340.13c-7.06,32.16-35.14,33.91-63.08,37.16
			c-7.55,0.88-10.46,2.49-17.25-1.21c-8.18-4.45-19.66-13.77-24.06-22.01c-10.74-20.12,1.59-42.94,14.47-58.66
			c17.71-21.61,64.09-26.77,77.92,1.93C1192.11,1315.3,1197.05,1328.49,1194.5,1340.13z M1224.06,1413.23
			c0.56,9.15-0.21,13.05-2.55,17.07c-7.71,13.25-24.83,22.03-37.99,10.3c-13.15-11.72-16.54-36.1,1.39-45.36
			C1197.4,1388.79,1221.79,1398.74,1224.06,1413.23z M1090.65,1382.54c-0.59,9.95,1.92,14.18,2.08,19.1
			c0.16,5.01,0.64,10.78-0.67,15.74c-1.09,4.09-2.83,8.82-6.2,11.56c-3.15,2.56-8.08,4.4-11.8,5.9c-5.2,2.1-10.58,5.02-15.85,6.69
			c-31.98,10.17-46.06-40.56-28.41-60.49c8.3-9.37,23.91-13.73,36.08-12.46C1074.25,1369.44,1086.99,1374.18,1090.65,1382.54z
			 M1131.78,1597.47c-7.04,7.3-9.54,10.86-11.56,11.71c-6.45,2.71-15.8,0.61-22.16-1.33c-16.78-5.1-30.99-24.58-24.63-43
			c7.17-20.77,45.66-26.57,61.37-13.48C1148.2,1562.54,1153.52,1592.4,1131.78,1597.47z M1111.18,1515.08
			c-8.27-6.54-19.83-15.91-21.51-27.03c-2.52-16.69,7.54-37.97,21.55-46.79c7.34-4.62,21.1-9.64,29.89-8.85
			c7.47,0.67,18.91,9.96,24.35,16.87c13.24,17.06,12.09,24.34,10.33,34.16C1170.29,1514.17,1139.33,1537.36,1111.18,1515.08z
			 M1221.46,1572.75c-3.22,5.99-10.66,14.08-18.04,14.26c-7.27-3.49-11.2-2.9-14.93-4.29c-3.8-1.41-8.27-2.82-11.57-5.32
			c-2.73-2.07-5.74-4.82-6.76-8.18c-0.95-3.14-0.82-7.39-0.81-10.64c0.02-4.54-0.52-9.46-0.16-13.91
			c2.17-27.05,44.46-22.07,53.98-2.76C1227.66,1551,1226.14,1564.03,1221.46,1572.75z M1270.75,1497.4
			c-1.84,7.81-7.34,15.33-15.65,16.8c-7.79,1.37-24.02-1.91-30.56-6.06c-19.25-12.2-17.59-42.04,0.64-53.78
			c6.88-4.43,38.87-13.75,39.52,2.25l6.01,11.72C1273.91,1475.78,1272.51,1489.9,1270.75,1497.4z M1266.34,1425.71
			c-30.05-4.91-47.03-56.11-32.84-80.64c12.1-20.92,51.63-35.21,63.67-6.71c11.62,7.89,17.07,10.48,18.7,13.03
			c5.22,8.17,4.55,21.43,3.4,30.57C1316.25,1406.07,1293,1430.06,1266.34,1425.71z M1354.93,1814.05
			c-0.29,3.98-15.18,21.33-23.88,17.59c-18.64-8.03-19.44-29.64-3.83-38.28C1339.31,1786.68,1355.74,1802.86,1354.93,1814.05z
			 M1376.55,1736.79c11.95,1.99,25.62,18.03,14.36,28.7c-1.66,6.84-1.91,9.86-2.82,11.07c-2.92,3.89-9.25,5.91-13.75,6.98
			c-11.85,2.83-27.2-3.86-29.85-17.14C1341.5,1751.43,1362.54,1734.45,1376.55,1736.79z M1367.47,1813.48
			c10.38-7.68,30.96,2.29,34.23,13.86c2.78,9.86-4.56,26.11-16.79,21.34c-5.84,1.2-8.23,2.09-9.49,1.83c-4.03-0.83-7.86-4.95-10.3-8
			C1358.68,1834.46,1358.26,1820.29,1367.47,1813.48z M1380.51,1904.08c-12.75-1.92-15.71-23.24-8.75-31.06
			c2.47-2.78,23.36-7.16,27.67,0.55C1408.67,1890.1,1396.98,1906.56,1380.51,1904.08z M1447.67,1852.12
			c-0.85,5.89-5.91,11.7-11.07,14.37c-3.55,1.84-9.85,3.28-13.48,0.92c-2.36-4.11-4.47-5.13-5.81-7.04
			c-1.37-1.95-3.07-4.11-3.84-6.42c-0.64-1.91-1.18-4.24-0.56-6.21c0.58-1.84,2.06-3.86,3.14-5.42c1.52-2.19,2.89-4.75,4.55-6.8
			C1430.63,1823.13,1449.48,1839.59,1447.67,1852.12z M1444.13,1808.02c-12.88,13.07-35.59,14.02-41.83-6.13
			c-1.83-5.92-4.32-14.3-1.44-20.25c4.32-8.93,16.27-15.9,25.99-15.52c5.09,0.2,13.43,2.34,17.43,5.64
			c3.4,2.81,5.86,11.11,6.2,16.27C1451.22,1800.7,1448.25,1803.85,1444.13,1808.02z M1445.51,1739c-1.89,1.62-4.3,3.33-6.85,3.54
			c-2.38,0.2-5.38-0.55-7.68-1.06c-3.22-0.71-6.8-1.08-9.91-2.02c-18.88-5.7-8.85-34.97,6.33-38.77c7.14-1.79,16.16,1.29,21.63,5.95
			c3.76,3.2,8.37,9.74,7.36,15c-3.59,4.63-3.78,7.51-5.34,9.95C1449.48,1734.07,1447.8,1737.03,1445.51,1739z M1472.48,1891.02
			c-16.75,1.73-26.07-13.6-18.25-26.17c6.05-9.73,24.49-4.65,28.43,3.77C1484.05,1871.62,1480.29,1890.21,1472.48,1891.02z
			 M1496.15,1824.56l-0.98,7.68c-0.92,4.68-6.29,11.06-9.63,14.1c-3.49,3.18-8.65,4.99-13.17,2.94c-4.23-1.92-11.01-8.91-12.8-13.09
			c-5.28-12.31,5.44-26.22,18.18-25.86C1482.55,1810.47,1501.15,1816.59,1496.15,1824.56z M1505.86,1777.51
			c-2.77,4.62-4.44,6.26-6.91,7.43c-8.14,3.86-19.36,2.43-21.84-7.63c-2.48-10.05,3.98-22.99,15.75-21.52
			C1501.06,1756.81,1509.58,1769.73,1505.86,1777.51z M1474.74,1694.09c1.48-13.33,15.04-20.29,26.51-23.63
			c15.76-4.59,39.96,8.32,37.13,26.83c-1.3,11.9-3.29,19.94-8.4,24.73c-14.11,13.24-28.3,4.76-42.93-2.95
			c-3.95-2.08-5.9-2.27-7.96-6.32C1476.6,1707.88,1474.13,1699.55,1474.74,1694.09z M1517.91,1853.21
			c-3.04-1.51-11.91-18.82-6.16-24.45c12.32-12.09,29.59-5.77,31.36,9.3C1544.48,1849.73,1526.46,1857.45,1517.91,1853.21z
			 M1574.9,1799.71c-9.48,10.68-28.72,14.59-40.2,3.61c-12.94-12.37-4.15-42.82,10.88-50c12.82-6.12,36.73,0.09,33.09,17.91
			c3.01,7.69,4.79,10.75,4.74,12.53C1583.22,1789.46,1578.49,1795.66,1574.9,1799.71z M1647.36,1177.21
			c2.08,53.16-42.76,108.8-68.51,150.12c-1.59,2.55-3.18,5.1-4.78,7.67c16.43-20.55,34.01-40.45,52.34-58.47
			c27.65-27.18,79.68-79.26,124.06-73.67c17.91,37.05-35.42,105.21-56.73,134.43c-6.53,8.94-13.36,17.56-20.4,25.95
			c11.15-7.65,22.42-15.01,33.12-22.46c9.06-6.32,94.57-85.11,107.06-49.51c9.64,27.46-36.54,79.72-49.59,97.72
			c-9.59,13.23-56.55,53.26-67.72,65.3c9.34-3.58,135.97-66.89,131.46-20.18c-5.28,54.69-84.73,99.96-134.72,113.84
			c-31.15,8.64-108.15,27.03-169.78,3.71c8.53,27.56,8.15,58.71-11.45,68.18c-31.18-13.15-42.79-55.96-39.22-87.83
			c-27.91,24.48-129.04,109.74-146.29,115.47c-6.15,2.04-11.92,1.41-18.06-2.53c-11.75-7.54-11.32-23.84,0.55-27.63
			c23.34-7.45,43.12-19.36,60.96-31.97c13.05-9.22,57.15-41.4,86.66-63.91c-7-0.49-13.93-1.28-21.3-5.24
			c-16.47-8.84-54.24-29.63-52.12-51.4c19.35-1.16,48.72,2.27,72.68,12.31c-9.79-48.46,5.23-132.98,116.68-269.42
			C1585.42,1191.54,1645.48,1129.09,1647.36,1177.21z M1344.95,898.36c96.38-28.94,205.42,39.46,253.74,119.26
			C1452.17,1032.02,1323,987,1344.95,898.36z M1277.53,285.48c10.04,13.46,24.18,24.7,34.75,38.15
			c9.45,12.03,17.6,24.66,27.33,36.49c15.82,19.23,31.84,36.45,41.36,60.45c4.36,10.98,5.98,21.56,12.33,31.59
			c4.95,7.82,11.6,14.12,17.06,21.47c14.15,19.03,24.58,40.31,35.9,61.13c4.55,8.36,9.04,18.46,14.07,27.87
			c8.18,5.32,16.22,10.11,23.92,14.24c10.36,5.56,22.01,9.61,33.28,13.52c7.2,2.5,14.54,5.07,21.68,8.05
			c-22.02-43.3-42.63-87.22-60.83-131.97c-13.73-13.72-29.42-25.84-40.64-42.15c-13.81-20.08-22.06-43.76-32.16-65.47
			c-19.37-41.61-35.44-78.49-36.72-125.03c-1.24-45.27,12.33-80.06,23.94-123.36c6.25-23.3,7.74-50.93,18.61-72.66
			c44.27,30.79,42.78,85.45,54.69,132.33c10.3,40.55,27.31,80.06,32.77,121.93c5.15,39.51,9.22,84.19,4.23,124.3
			c-2,16.05-6.26,31.38-9.57,47.61c28.52,65.8,62.36,129.65,98.11,192.34c2.1-12.47,5.4-24.87,8.65-37.02
			c3.54-13.26,7.18-26.9,9.12-40.29c-16.54-20.78-33.97-42.34-40.23-68.23c-9.61-39.76-12.68-73.79-7.39-114.57
			c3.89-29.95,8.73-57.77,6.22-87.96c-1.75-21.01-8.32-45.15-5.62-66.17c32.87,22.36,57.64,66.66,72.03,103.07
			c13.13,33.21,28.72,68.04,30.59,104.03c1.73,33.36,3.49,80.75-19.15,108.37c-5.48,6.68-15.29,9.87-22.74,17.42
			c-1.75,16.1-6.03,32.15-10.18,47.7c-4.88,18.27-9.5,35.63-10.3,52.8c28.7,49.67,21.09,43.39,50.04,92.13
			c3.31,5.53,1.52,12.7-4.02,16.01c-5.53,3.31-12.7,1.52-16.01-4.02c-40.52-71.44-45.26-88.27-83.64-162.11
			c-0.57-0.14-1.14-0.35-1.68-0.65c-10.34-5.82-21.88-9.83-34.09-14.08c-11.75-4.08-23.89-8.31-35.17-14.35
			c-3.88-2.08-7.95-4.39-12.17-6.92c-0.65,0.04-1.31,0.12-1.98,0.28c-11.03,1.52-23.45-3.53-34.36-5.28
			c-16.4-2.63-31.61-7.6-46.35-14.86c-28.03-13.8-45.41-29.61-56.44-59.42c-19.88-53.73-42.14-105.08-48.85-162.34
			C1275.96,323.18,1273.23,302.18,1277.53,285.48z M985.98,433.09c-0.7,43.29,64.56,57.47,87.48,90.1
			c11.62,16.55,19.92,36.14,28.55,53.22c-26.9-93.97-47.82-190.34,35.22-270.54c0.43,53.65,27.91,97.08,15.39,151.23
			c-9.01,38.95-18.66,78.37-29.89,116.08c26.35-51.75,89.05-118.21,124.32-122.14c0.25,133.95-93.2,136.4-130.54,160.79
			c-57.47-9.03-125.33-40.04-139.74-87.34C968.71,498,969.66,456.05,985.98,433.09z M757.62,54.23l8.04,9.4
			c4.56,6.1,6.35,19.31,6.37,26.54c0.02,7.54-3.37,15.61-10.64,18.76c-6.81,2.95-22.36,3.49-29.24,1.12
			c-20.25-6.95-25.23-34.58-11.13-49.28C726.34,55.23,753.54,39.75,757.62,54.23z M743.42,169.76c-1.63,6.18-6.67,15.19-13.37,16.96
			c-7.4-1.6-10.87-0.21-14.58-0.66c-3.78-0.46-8.17-0.77-11.73-2.34c-2.94-1.29-6.29-3.15-7.95-6c-1.56-2.66-2.36-6.58-3.05-9.54
			c-0.97-4.15-2.53-8.53-3.18-12.68c-3.91-25.19,35.81-29.85,48.72-14.28C744.34,148.54,745.8,160.77,743.42,169.76z M671.35,15.54
			c10.01-8.62,34.46-4.84,39.69,7.91c2.5,8.24,2.65,11.97,1.39,16.15c-4.16,13.79-17.89,25.54-32.46,17.69
			C665.4,49.44,656.99,27.92,671.35,15.54z M614.05,73.64c5.7-5.82,17.18-13.4,25.39-14.6c6.97-1.01,19.45,4.98,25.92,10.11
			c15.81,12.7,16.35,19.61,16.88,28.96c1.67,29.27-21.57,57.2-52.14,42.98c-8.98-4.18-21.58-10.22-25.54-20.01
			C598.61,106.39,603.17,84.76,614.05,73.64z M666.87,211.89c-4.84,8.2-6.35,12-8.01,13.21c-5.3,3.89-14.3,4-20.53,3.62
			c-16.44-1.01-33.67-15.7-31.87-33.92c2.03-20.54,35.93-34.23,53.13-25.68C674.26,176.39,685.63,202.52,666.87,211.89z
			 M526.54,36.34c5.54-10.37,18.86-17.76,30.25-19.24c7.83-1.02,20.51,0.53,25.67,7.37c1.63,9.22,4.84,12.54,6.06,16.99
			c1.24,4.54,2.94,9.71,2.81,14.52c-0.1,3.97-0.67,8.67-3.14,11.91c-2.32,3.02-6.42,5.78-9.49,7.96c-4.29,3.05-8.58,6.89-13.03,9.57
			C538.68,101.68,514.75,58.4,526.54,36.34z M533.52,127.73c15.18-12.01,48.84-11.01,49.4,13.77c6.33,9.3,9.63,12.84,10.09,15.22
			c1.48,7.63-2.93,17.3-6.48,23.77c-9.36,17.07-33.75,28.08-52.32,16.98C513.27,184.96,515.72,141.82,533.52,127.73z M301.05,779.08
			c-28.95-3.75-79.96-9.98-97.96-37.94c-10.26-15.94-2.81-41.48,12.59-52.28c17.98-12.6,57.41-11.35,77.88-5.59
			c-16.07-5.12-48.3-21.47-55.96-35.59c-10.43-19.24,9.13-42,27.01-49.59c34.2-14.51,78.84,4.07,110.61,16.32
			c41.38,15.95,75.78,38.75,110.64,63.36c-39.3-39.87-80.77-91.31-115.5-130.52c-20.93-23.63-58.04-64.97-54.68-99.56
			c1.91-19.71,24.22-34.22,43.52-31.58c22.53,3.08,53.49,32.27,66.3,51.38c-9.68-15.48-25.2-51.23-22.36-67.68
			c3.88-22.4,34.17-26.08,53.42-19.18c36.81,13.21,60.91,59.58,78.68,91.82c12.83,23.27,22.58,46.65,30.84,70.36
			c-4.07-23.91-7.46-48-9.33-72.67c-2.39-31.48-6.95-86.84,16.63-112.36c13.44-14.55,39.98-12.61,53.76,1.16
			c16.08,16.07,23.1,58.05,21.75,81.01c1.65-18.18,10.9-56.05,23.11-67.43c16.63-15.5,42.98-0.12,54.14,17.02
			c21.34,32.77,12.49,84.28,7.16,120.71c-9.65,65.89-35.03,120.63-58.79,182.12c-3.13,8.11-5.59,16.4-8.06,24.68
			c0.76-0.36,1.52-0.72,2.27-1.07c1.71,20.49,11.61,38.21,3.9,59.43c-6.35,17.48-24.99,33.65-42.4,40.16
			c-21.87,8.18-65.2-8.1-77.84-23.45c1.63-1.44,3.28-2.88,4.96-4.31c-29.6-1.33-59.35-2.2-88.95-2.79
			C411.97,783.92,357.11,786.33,301.05,779.08z M588.44,1206.57c-0.18,5.7-4.92,11.9-8.51,15.95c-9.48,10.68-28.72,14.59-40.2,3.61
			c-12.94-12.37-4.15-42.82,10.88-50c12.82-6.12,36.73,0.09,33.09,17.91C586.71,1201.73,588.5,1204.79,588.44,1206.57z
			 M541.74,1136.05c-1.3,11.9-3.29,19.94-8.4,24.73c-14.11,13.24-28.3,4.76-42.93-2.95c-3.95-2.08-5.9-2.27-7.96-6.32
			c-2.49-4.88-4.96-13.21-4.35-18.67c1.48-13.33,15.04-20.29,26.51-23.63C520.37,1104.63,544.57,1117.55,541.74,1136.05z
			 M510.26,1226.35c4.81,0.14,23.41,6.25,18.41,14.22l-0.98,7.68c-0.92,4.68-6.29,11.06-9.63,14.1c-3.49,3.18-8.65,4.99-13.17,2.94
			c-4.23-1.92-11.01-8.91-12.8-13.09C486.8,1239.9,497.52,1225.99,510.26,1226.35z M510.38,1184.31c8.2,1.02,16.72,13.95,13,21.73
			c-2.77,4.62-4.44,6.26-6.91,7.43c-8.14,3.86-19.36,2.43-21.84-7.63C492.15,1195.79,498.61,1182.85,510.38,1184.31z
			 M476.65,1224.04c-12.87,13.07-35.59,14.02-41.83-6.13c-1.83-5.92-4.32-14.3-1.44-20.25c4.32-8.93,16.27-15.9,25.99-15.52
			c5.09,0.2,13.43,2.34,17.43,5.64c3.4,2.81,5.86,11.11,6.2,16.27C483.74,1216.72,480.76,1219.86,476.65,1224.04z M480.19,1268.13
			c-0.85,5.89-5.91,11.7-11.07,14.37c-3.55,1.84-9.85,3.28-13.48,0.92c-2.36-4.11-4.47-5.13-5.81-7.04
			c-1.37-1.95-3.07-4.11-3.84-6.42c-0.64-1.91-1.18-4.24-0.56-6.21c0.58-1.84,2.06-3.86,3.14-5.42c1.52-2.19,2.89-4.75,4.55-6.8
			C463.15,1239.14,482,1255.61,480.19,1268.13z M439.91,1125.88c7.14-1.79,16.16,1.29,21.63,5.95c3.76,3.2,8.37,9.74,7.36,15
			c-3.59,4.63-3.78,7.51-5.34,9.95c-1.58,2.48-3.27,5.44-5.56,7.4c-1.89,1.62-4.3,3.33-6.85,3.54c-2.38,0.2-5.38-0.55-7.68-1.06
			c-3.22-0.71-6.8-1.08-9.91-2.02C414.71,1158.95,424.74,1129.68,439.91,1125.88z M368.4,1197.11
			c-2.99-14.97,18.05-31.95,32.06-29.61c11.95,1.99,25.62,18.03,14.36,28.7c-1.66,6.84-1.91,9.86-2.82,11.07
			c-2.92,3.89-9.25,5.91-13.75,6.98C386.4,1217.07,371.05,1210.39,368.4,1197.11z M399.99,1229.49
			c10.38-7.68,30.96,2.29,34.23,13.86c2.78,9.86-4.56,26.11-16.79,21.34c-5.84,1.2-8.23,2.09-9.49,1.83c-4.03-0.83-7.86-4.95-10.3-8
			C391.2,1250.47,390.78,1236.31,399.99,1229.49z M868.08,1633.82c-17.18,31.94-51.69,51.18-79.5,72.66
			c-6.74,5.21-15.94,10.58-23.92,14.94c16.09,15.37,32.51,30.37,49.37,44.86c12.36,10.12,24.57,20.35,38.63,27.63
			c1.88,0.91,3.6,1.61,5.16,2.09c6.43,2.04,9.99,8.91,7.95,15.34s-8.91,9.99-15.34,7.95c-4.52-1.6-8.6-3.85-12.59-6.33
			c-21.87-14.39-40.31-32.82-58.83-50.94c-9.12-9.14-18.13-18.39-27.04-27.73c-5.26,8.48-12.47,19.6-19.22,27.24
			c-23.27,26.32-44.75,59.49-77.76,74.52c-28,12.76-45.76,4.27-58.88-21.87c-15.24-30.35-5.95-61.8,22.02-80.99
			c36.56-25.09,80.56-18.45,122.09-11.33c-30.25-32.22-59.48-65.37-88.41-98.78c-4.08,8.58-9.32,18.92-14.53,26.43
			c-20.02,28.87-37.46,64.33-68.47,83.14c-26.31,15.96-44.94,9.61-61.04-14.81c-18.69-28.35-13.16-60.67,12.35-83.01
			c33.32-29.18,77.72-27.78,119.75-25.59c-11.32-13.26-22.32-26.8-34.35-39.45c-9.66-10.17-19.69-19.98-29.93-29.57
			c-5.65,8.31-13.53,19.43-20.76,26.93c-24.39,25.29-47.29,57.49-80.92,71.07c-28.53,11.53-45.9,2.28-57.88-24.41
			c-13.9-30.99-3.26-62,25.51-79.96c36.88-23.02,79.57-15.26,120.04-6.54c-9.75-8.84-19.62-17.55-29.51-26.25
			c-44.27-6.35-92.64-11.88-121.7-49.51c-20.73-26.84-19.92-59.62,3.89-83.84c20.51-20.86,40.01-23.49,62.75-2.76
			c26.8,24.44,37.07,62.59,51.15,94.78c4.16,9.5,7.66,22.59,10.06,32.33c7.57,7.09,15.24,14.11,22.93,21.15
			c-13.19-36.47-24.03-74.75-7.66-111.83c13.69-31.03,42.88-45.97,75.53-36.6c28.12,8.07,39.74,23.95,32.38,53.83
			c-8.68,35.22-37.3,62.45-58.87,90.19c-5.83,7.49-14.55,15.93-21.67,22.5c0.07,0.07,0.15,0.14,0.22,0.21
			c0.11,0.02,0.22,0.05,0.33,0.07c-0.03,0.05-0.07,0.1-0.1,0.15c17.91,16.6,35.51,33.59,51.67,51.88c5.14,5.67,10.28,11.33,15.44,17
			c-2.7-42.06-4.68-86.52,24.14-120.24c22.03-25.78,54.28-31.7,82.86-13.35c24.61,15.81,31.18,34.36,15.54,60.86
			c-18.43,31.24-53.68,49.1-82.31,69.46c-8.15,5.8-19.68,11.68-28.6,15.99c28.6,31.2,57.67,62.11,87.83,91.81
			c-4.02-40.06-6.11-81.78,20-114.9c21-26.63,52.99-33.83,82.27-16.62C875.36,1588.44,882.66,1606.72,868.08,1633.82z
			 M857.04,1443.45c-21.48-34.11-15.99-94.64-22.1-133.96c-13.14-84.64,7.57-154.7,51.04-227.51c10.71-17.94,21.87-36.57,34.23-53.9
			c-3.74,2.03-7.06,3.74-9.75,5.08c-40.9,20.39-93.32,40.34-137.88,47.96c-49.42,8.46-90.45-8.97-135.44-26.54
			c-45.81-17.89-103.13-21.44-144.1-48.61c90.85-52.93,184.07-86.14,290.84-93.92c34.89-2.54,77.39,0.92,117.93,9.65
			c-26.39-34.59-46.51-74.72-63-115.47c-18.2-44.98-14.72-100.98-17.61-148.72c-2.51-41.43-6.54-83.3-11.8-124.41
			c37.96,13.55,71.05,64.53,100.14,91.68c62.63,58.43,89.63,126.32,100.44,210.42c1.11,8.64,2.24,17.43,3.24,26.28
			c5.97-14.54,12.48-28.81,20.06-41.95c20.42-35.4,46.95-62.26,81.06-83.36c30.26-18.72,63.35-27.66,97-38.53
			c50.66-16.36,102.01-36.74,153.78-49.28c-0.37,64.22-53.86,125.44-95.77,170.24c-39.23,41.92-88.16,81.77-138.01,110.08
			c-12.82,7.28-29.84,17.69-48.45,27.56c22.19-0.31,44.84-0.05,66.14,3.03c40.45,5.85,75.22,20.55,107.46,44.42
			c28.6,21.17,49.16,48.6,71.72,75.83c33.97,41,71.91,81.15,102.73,124.59c-59.79,23.45-136.47-3.56-193.61-25.91
			c-53.47-20.91-108.6-51.6-153.37-87.42c-15.86-12.69-40.2-30.6-61.57-50.93c6.81,56.53-3.67,115.12-19.73,170.67
			c-13.48,46.61-50.82,88.49-78.05,127.82C901.01,1372.47,878.31,1407.88,857.04,1443.45z"/>
		<path class="st1" d="M1858.95,506.35c22.91,0.3,48.2,4.57,75.74,12.86c14.39,4.33,28.83,9.38,42.8,14.26
			c7.44,2.6,14.95,5.22,22.51,7.76v-68.7c-8-1.55-16.15-2.5-24.27-2.96C1946.06,467.85,1878,497.69,1858.95,506.35z"/>
		<path class="st1" d="M1932.31,527.12c-26.99-8.11-51.65-12.28-73.88-12.52c13.23,17.15,52,66.28,69.56,76.34
			c22.12,12.68,46.82,21.82,72.02,24.95v-65.95c-8.49-2.82-16.9-5.76-25.24-8.67C1960.88,536.42,1946.52,531.4,1932.31,527.12z"/>
		<path class="st12" d="M1934.69,519.21c-27.55-8.28-52.83-12.56-75.74-12.86c-27.69-0.36-51.91,5.09-72.41,16.37l3.99,7.24
			c19.13-10.53,41.84-15.65,67.91-15.36c22.23,0.24,46.89,4.41,73.88,12.52c14.22,4.27,28.57,9.29,42.45,14.15
			c8.34,2.92,16.75,5.86,25.24,8.67v-8.72c-7.56-2.54-15.06-5.16-22.51-7.76C1963.52,528.58,1949.08,523.53,1934.69,519.21z"/>
		<path class="st1" d="M44.26,614.74c32.76-6.21,61.79-24.44,89.94-42.31c-17.83-17.12-35.66-34.23-53.48-51.35
			c-14.43-13.85-29.11-27.89-46.86-37.11c-10.62-5.52-22.09-9.15-33.86-11.44v68.7c25.07,8.41,50.74,15.84,76.92,18.31l-0.78,8.23
			c-26.11-2.46-51.45-9.62-76.14-17.82v65.95C14.72,617.73,29.62,617.51,44.26,614.74z"/>
		<path class="st12" d="M76.92,559.54c-26.18-2.47-51.86-9.9-76.92-18.31v8.72c24.69,8.2,50.04,15.36,76.14,17.82L76.92,559.54z"/>
		<path class="st29" d="M90.76,394.04c11.24,15.96,24.05,31.69,41.49,40.47s40.59,8.86,54.78-4.54
			c22.15-20.93,13.13-62.32,36.26-82.15c22.34-19.15,57.49-4.79,85.55-13.65c30.59-9.66,45.99-46.57,40.83-78.23
			c-5.17-31.66-25.93-58.47-48.29-81.48c-17.6-18.11-59.85-54.04-107.14-84.02c58.86,0.11,117.76-10.69,172.59-32.13
			c18.18-7.11,36.52-15.79,49.21-30.63c6.64-7.76,11.33-17.62,12.93-27.68H95.26c-2.05,22.46-12.11,44.99-27.65,58.9
			C49.45,75.16,23.79,83.6,0,79.59v139.93c3.49-9.78,6.79-19.73,9.77-29.71C20.35,262.95,48.19,333.61,90.76,394.04z M136.78,6.06
			c60.13,1.89,121,0.12,180.92-5.27c1.92-0.17,3.63,1.25,3.8,3.17c0.17,1.92-1.25,3.63-3.17,3.8c-44.64,4.02-89.81,6.04-134.81,6.04
			c-15.69,0-31.34-0.24-46.95-0.74c-1.93-0.06-3.45-1.68-3.39-3.61S134.87,5.99,136.78,6.06z M105.63,108.47
			c1.15-1.56,3.34-1.89,4.89-0.74c50.97,37.6,94.76,83.31,130.17,135.84c1.08,1.6,0.66,3.78-0.95,4.86c-0.6,0.4-1.28,0.6-1.95,0.6
			c-1.13,0-2.23-0.54-2.91-1.54c-34.96-51.87-78.2-97-128.52-134.12C104.82,112.22,104.49,110.02,105.63,108.47z M53.32,142.57
			c1.75-0.82,3.83-0.06,4.65,1.69c25.47,54.51,54.54,108.01,86.4,159.04c1.02,1.64,0.52,3.8-1.11,4.82
			c-0.58,0.36-1.22,0.53-1.85,0.53c-1.17,0-2.31-0.58-2.97-1.65c-32.02-51.26-61.22-105.02-86.81-159.78
			C50.81,145.48,51.57,143.39,53.32,142.57z"/>
		<path class="st42" d="M67.61,58.9C83.15,44.99,93.21,22.46,95.26,0H0v79.59C23.79,83.6,49.45,75.16,67.61,58.9z"/>
		<path class="st31" d="M136.56,13.06c15.61,0.49,31.27,0.74,46.95,0.74c45,0,90.17-2.02,134.81-6.04c1.93-0.17,3.35-1.87,3.17-3.8
			c-0.17-1.93-1.88-3.35-3.8-3.17c-59.92,5.39-120.79,7.17-180.92,5.27c-1.92-0.07-3.55,1.46-3.61,3.39S134.63,12.99,136.56,13.06z"
			/>
		<path class="st31" d="M106.37,113.36c50.32,37.12,93.56,82.25,128.52,134.12c0.68,1,1.78,1.54,2.91,1.54
			c0.67,0,1.35-0.19,1.95-0.6c1.6-1.08,2.03-3.26,0.95-4.86c-35.41-52.54-79.2-98.24-130.17-135.84c-1.56-1.15-3.75-0.82-4.89,0.74
			C104.49,110.02,104.82,112.22,106.37,113.36z"/>
		<path class="st31" d="M138.44,307.01c0.66,1.06,1.8,1.65,2.97,1.65c0.63,0,1.27-0.17,1.85-0.53c1.64-1.02,2.14-3.18,1.11-4.82
			c-31.87-51.02-60.94-104.53-86.4-159.04c-0.82-1.75-2.9-2.51-4.65-1.69c-1.75,0.82-2.51,2.9-1.69,4.65
			C77.21,201.99,106.42,255.75,138.44,307.01z"/>
		<path class="st29" d="M1839.24,63.33c-58.89,27.78-112.07,67.69-154.81,116.83c-12.81,14.73-25.03,30.92-29.39,49.95
			c-4.36,19.03,1.08,41.53,17.49,52.11c25.61,16.52,63.65-2.13,88.43,15.6c23.93,17.12,18.38,54.68,33.68,79.81
			c16.69,27.4,56.21,33.55,85.72,20.97c29.51-12.58,50.59-39.14,67.59-66.35c12.42-19.88,34.68-64.04,52.06-112.72V79.59
			c-4.1-0.69-8.16-1.74-12.1-3.2c-24.96-9.2-43.28-33.76-45.82-60.24c-0.53-5.54-0.4-10.93,0.3-16.16h-46.41
			c-0.64,0.93-1.7,1.52-2.87,1.52c-0.19,0-0.39-0.02-0.59-0.05c-2.77-0.47-5.54-0.97-8.31-1.47h-250.61
			c19.04,18.69,44.96,30.04,70.62,38.47C1728.36,46.41,1783.04,58.77,1839.24,63.33z M1954.88,134.45c0.86-1.73,2.96-2.43,4.69-1.57
			c1.73,0.86,2.43,2.96,1.57,4.69c-28.23,56.7-65.69,107.73-111.32,151.67c-0.68,0.65-1.55,0.98-2.43,0.98
			c-0.92,0-1.83-0.36-2.52-1.07c-1.34-1.39-1.3-3.61,0.09-4.95C1890.03,240.81,1927.01,190.43,1954.88,134.45z M1912.16,86.32
			c1.61-1.06,3.79-0.62,4.85,1c1.06,1.61,0.62,3.79-1,4.85c-63.12,41.56-90.17,66.01-127.61,99.85c-4.51,4.08-9.16,8.28-14.04,12.66
			c-0.67,0.6-1.5,0.9-2.34,0.9c-0.96,0-1.91-0.39-2.6-1.16c-1.29-1.44-1.17-3.65,0.26-4.94c4.87-4.37,9.52-8.58,14.02-12.65
			C1821.38,152.77,1848.59,128.17,1912.16,86.32z"/>
		<path class="st42" d="M1942.08,16.16c2.55,26.48,20.86,51.04,45.82,60.24c3.95,1.45,8,2.51,12.1,3.2V0h-57.62
			C1941.68,5.23,1941.55,10.62,1942.08,16.16z"/>
		<path class="st31" d="M1844.97,284.2c-1.39,1.34-1.43,3.56-0.09,4.95c0.69,0.71,1.6,1.07,2.52,1.07c0.87,0,1.75-0.33,2.43-0.98
			c45.63-43.95,83.09-94.98,111.32-151.67c0.86-1.73,0.16-3.83-1.57-4.69c-1.73-0.86-3.83-0.16-4.69,1.57
			C1927.01,190.43,1890.03,240.81,1844.97,284.2z"/>
		<path class="st31" d="M1769.68,199.47c-1.44,1.29-1.56,3.5-0.26,4.94c0.69,0.77,1.65,1.16,2.6,1.16c0.83,0,1.67-0.3,2.34-0.9
			c4.88-4.38,9.53-8.59,14.04-12.66c37.44-33.84,64.49-58.29,127.61-99.85c1.61-1.06,2.06-3.23,1-4.85c-1.06-1.62-3.24-2.06-4.85-1
			c-63.56,41.85-90.78,66.45-128.45,100.5C1779.2,190.9,1774.55,195.1,1769.68,199.47z"/>
		<path class="st31" d="M1893.1,1.52c1.17,0,2.23-0.59,2.87-1.52h-11.77c2.77,0.51,5.54,1,8.31,1.47
			C1892.71,1.5,1892.91,1.52,1893.1,1.52z"/>
		<path class="st29" d="M424.69,1973.4c-15.03-26.51-57.38-27.62-71.12-54.83c-13.26-26.27,9.07-56.97,7.17-86.33
			c-2.08-32.01-34.24-55.78-66.22-58.32c-31.98-2.54-62.97,11.22-90.65,27.44c-11.73,6.88-30.2,19.47-51.05,35.67
			c17.64-44.65,28.56-91.96,31.93-139.85c1.37-19.47,1.38-39.76-6.59-57.58c-7.97-17.82-25.86-32.51-45.33-31.09
			c-30.39,2.22-49.55,40.01-80.01,40.76c-20.83,0.52-36.02-16.04-52.82-29.61v314.19c17.06-6.29,35.85-7.87,53.43-3.19
			c32.75,8.72,44.61,38.97,41.83,69.34h333.69C430.4,1990.83,429.28,1981.49,424.69,1973.4z M95.53,1705.96
			c-8.01,59.91-19.78,119.95-34.98,178.45c-0.41,1.58-1.83,2.62-3.39,2.62c-0.29,0-0.59-0.04-0.88-0.11
			c-1.87-0.49-2.99-2.4-2.51-4.27c15.13-58.22,26.84-117.98,34.82-177.61c0.26-1.92,2.02-3.27,3.93-3
			C94.44,1702.28,95.79,1704.04,95.53,1705.96z M308.77,1894.81c-62.07,7.77-121.86,25.97-177.7,54.11
			c-0.5,0.25-1.04,0.38-1.57,0.38c-1.28,0-2.51-0.71-3.13-1.93c-0.87-1.73-0.17-3.83,1.55-4.7c56.57-28.5,117.12-46.93,179.98-54.8
			c1.91-0.24,3.67,1.12,3.91,3.04C312.05,1892.83,310.69,1894.58,308.77,1894.81z"/>
		<path class="st42" d="M53.43,1930.66c-17.57-4.68-36.37-3.09-53.43,3.19V2000h95.26C98.04,1969.63,86.18,1939.38,53.43,1930.66z"
			/>
		<path class="st31" d="M92.53,1702.03c-1.91-0.26-3.68,1.09-3.93,3c-7.98,59.63-19.69,119.39-34.82,177.61
			c-0.49,1.87,0.64,3.78,2.51,4.27c0.29,0.08,0.59,0.11,0.88,0.11c1.56,0,2.98-1.04,3.39-2.62c15.2-58.5,26.97-118.54,34.98-178.45
			C95.79,1704.04,94.44,1702.28,92.53,1702.03z"/>
		<path class="st31" d="M307.91,1887.87c-62.86,7.87-123.42,26.3-179.98,54.8c-1.73,0.87-2.42,2.97-1.55,4.7
			c0.62,1.22,1.85,1.93,3.13,1.93c0.53,0,1.07-0.12,1.57-0.38c55.85-28.14,115.64-46.34,177.7-54.11c1.92-0.24,3.28-1.99,3.04-3.91
			C311.57,1888.99,309.82,1887.62,307.91,1887.87z"/>
		<path class="st29" d="M1896.81,1640.65c-16,27.81-16.84,61.71-14.05,93.67c1.64,18.68,7.6,53.57,17.81,92.05
			c-33.05-31.93-70.71-59.09-111.58-80.1c-17.36-8.93-36.01-16.93-55.53-16.62s-40.07,10.96-46.43,29.42
			c-9.92,28.81,17.27,61.3,5.96,89.6c-10.91,27.33-48.71,30.9-69.46,51.76c-22.62,22.74-19.16,62.59,0.1,88.24
			c3.04,4.05,6.37,7.82,9.95,11.32h250.62c-67-12.23-132.26-34.35-180.16-61.18c-1.69-0.94-2.29-3.08-1.34-4.76s3.08-2.29,4.76-1.34
			c49.21,27.56,117.08,50.1,186.22,61.86c1.91,0.32,3.19,2.13,2.86,4.04c-0.09,0.52-0.3,0.99-0.58,1.39h46.41
			c4.14-30.69,28.32-55.35,57.62-66.15v-314.19c-6.93-5.6-14.13-10.69-22.11-13.86C1948.07,1593.97,1912.81,1612.84,1896.81,1640.65
			z M1916.77,1944.67c-0.69,0.83-1.69,1.26-2.69,1.26c-0.79,0-1.58-0.27-2.24-0.81c-58.05-48.38-89.28-67.2-132.51-93.23
			c-5.21-3.14-10.58-6.38-16.19-9.78c-1.65-1-2.18-3.16-1.18-4.81c1-1.65,3.16-2.18,4.81-1.18c5.6,3.4,10.97,6.63,16.17,9.76
			c43.5,26.2,74.92,45.13,133.38,93.85C1917.81,1940.98,1918.01,1943.19,1916.77,1944.67z M1983.27,1690.33
			c-6.13,62.25-1.59,124.59,13.52,185.27c0.47,1.88-0.67,3.78-2.55,4.24c-0.28,0.07-0.57,0.1-0.85,0.1c-1.57,0-3-1.06-3.39-2.66
			c-15.3-61.46-19.91-124.59-13.69-187.64c0.19-1.92,1.88-3.32,3.83-3.14C1982.05,1686.69,1983.46,1688.41,1983.27,1690.33z"/>
		<path class="st42" d="M1942.38,2000H2000v-66.15C1970.7,1944.65,1946.52,1969.31,1942.38,2000z"/>
		<path class="st31" d="M1976.3,1689.65c-6.21,63.05-1.61,126.18,13.69,187.64c0.4,1.59,1.82,2.66,3.39,2.66
			c0.28,0,0.56-0.03,0.85-0.1c1.88-0.47,3.02-2.37,2.55-4.24c-15.11-60.68-19.65-123.01-13.52-185.27c0.19-1.92-1.22-3.64-3.14-3.83
			C1978.18,1686.32,1976.49,1687.72,1976.3,1689.65z"/>
		<path class="st31" d="M1893.68,1994.57c-69.14-11.75-137.01-34.3-186.22-61.86c-1.69-0.94-3.82-0.34-4.76,1.34
			s-0.34,3.82,1.34,4.76c47.9,26.83,113.15,48.94,180.16,61.18h11.77c0.28-0.41,0.49-0.87,0.58-1.39
			C1896.87,1996.7,1895.59,1994.89,1893.68,1994.57z"/>
		<path class="st31" d="M1782.94,1845.89c-5.21-3.14-10.57-6.37-16.17-9.76c-1.65-1-3.8-0.48-4.81,1.18c-1,1.65-0.48,3.81,1.18,4.81
			c5.61,3.4,10.98,6.64,16.19,9.78c43.23,26.04,74.46,44.85,132.51,93.23c0.65,0.55,1.45,0.81,2.24,0.81c1,0,2-0.43,2.69-1.26
			c1.24-1.49,1.04-3.69-0.45-4.93C1857.86,1891.01,1826.44,1872.09,1782.94,1845.89z"/>
		<path class="st32" d="M850.15,1573.62c-29.28-17.21-61.27-10.02-82.27,16.62c-26.11,33.12-24.02,74.84-20,114.9
			c-30.16-29.7-59.23-60.6-87.83-91.81c8.92-4.31,20.45-10.19,28.6-15.99c28.63-20.37,63.88-38.23,82.31-69.46
			c15.64-26.5,9.07-45.06-15.54-60.86c-28.58-18.35-60.83-12.43-82.86,13.35c-28.82,33.72-26.84,78.18-24.14,120.24
			c-5.16-5.66-10.3-11.33-15.44-17c-16.17-18.29-33.76-35.28-51.67-51.88c0.03-0.05,0.07-0.1,0.1-0.15
			c-0.11-0.02-0.22-0.05-0.33-0.07c-0.07-0.07-0.15-0.14-0.22-0.21c7.12-6.56,15.84-15.01,21.67-22.5
			c21.57-27.74,50.19-54.97,58.87-90.19c7.36-29.88-4.26-45.76-32.38-53.83c-32.65-9.36-61.83,5.57-75.53,36.6
			c-16.37,37.08-5.53,75.36,7.66,111.83c-7.69-7.03-15.36-14.06-22.93-21.15c-2.41-9.74-5.91-22.83-10.06-32.33
			c-14.08-32.19-24.35-70.35-51.15-94.78c-22.74-20.73-42.25-18.1-62.75,2.76c-23.81,24.22-24.62,56.99-3.89,83.84
			c29.06,37.63,77.43,43.16,121.7,49.51c9.88,8.7,19.76,17.41,29.51,26.25c-40.47-8.72-83.15-16.48-120.04,6.54
			c-28.77,17.96-39.42,48.97-25.51,79.96c11.97,26.69,29.35,35.94,57.88,24.41c33.63-13.59,56.53-45.79,80.92-71.07
			c7.24-7.5,15.11-18.62,20.76-26.93c10.24,9.59,20.27,19.4,29.93,29.57c12.04,12.65,23.03,26.19,34.35,39.45
			c-42.03-2.19-86.43-3.59-119.75,25.59c-25.52,22.34-31.05,54.66-12.35,83.01c16.1,24.42,34.73,30.77,61.04,14.81
			c31.01-18.81,48.45-54.26,68.47-83.14c5.21-7.51,10.46-17.85,14.53-26.43c28.92,33.41,58.16,66.56,88.41,98.78
			c-41.53-7.12-85.52-13.77-122.09,11.33c-27.96,19.19-37.25,50.64-22.02,80.99c13.12,26.14,30.88,34.63,58.88,21.87
			c33.01-15.04,54.48-48.2,77.76-74.52c6.75-7.63,13.96-18.76,19.22-27.24c8.91,9.33,17.92,18.58,27.04,27.73
			c18.52,18.12,36.96,36.55,58.83,50.94c3.99,2.48,8.07,4.73,12.59,6.33c6.43,2.04,13.3-1.52,15.34-7.95s-1.52-13.3-7.95-15.34
			c-1.57-0.48-3.28-1.17-5.16-2.09c-14.06-7.27-26.27-17.51-38.63-27.63c-16.86-14.48-33.28-29.48-49.37-44.86
			c7.98-4.36,17.18-9.73,23.92-14.94c27.8-21.48,62.31-40.72,79.5-72.66C882.66,1606.72,875.36,1588.44,850.15,1573.62z"/>
		<path class="st33" d="M1022.42,1039.85c21.36,20.32,45.71,38.24,61.57,50.93c44.76,35.81,99.9,66.51,153.37,87.42
			c57.14,22.34,133.82,49.35,193.61,25.91c-30.82-43.44-68.77-83.59-102.73-124.59c-22.56-27.24-43.13-54.66-71.72-75.83
			c-32.24-23.86-67.01-38.57-107.46-44.42c-21.31-3.08-43.95-3.34-66.14-3.03c18.61-9.87,35.64-20.28,48.45-27.56
			c49.85-28.31,98.78-68.16,138.01-110.08c41.92-44.8,95.41-106.02,95.77-170.24c-51.77,12.54-103.12,32.91-153.78,49.28
			c-33.66,10.87-66.75,19.81-97,38.53c-34.11,21.1-60.64,47.96-81.06,83.36c-7.58,13.14-14.09,27.42-20.06,41.95
			c-1.01-8.85-2.13-17.64-3.24-26.28c-10.81-84.1-37.81-151.99-100.44-210.42c-29.09-27.14-62.18-78.13-100.14-91.68
			c5.26,41.11,9.29,82.98,11.8,124.41c2.89,47.74-0.6,103.75,17.61,148.72c16.49,40.75,36.6,80.88,63,115.47
			c-40.55-8.73-83.05-12.19-117.93-9.65c-106.78,7.78-200,40.99-290.84,93.92c40.96,27.17,98.29,30.72,144.1,48.61
			c44.98,17.57,86.01,35,135.44,26.54c44.57-7.63,96.98-27.57,137.88-47.96c2.69-1.34,6.01-3.06,9.75-5.08
			c-12.36,17.33-23.52,35.96-34.23,53.9c-43.46,72.81-64.18,142.87-51.04,227.51c6.11,39.32,0.62,99.85,22.1,133.96
			c21.27-35.58,43.97-70.99,67.59-105.12c27.23-39.33,64.57-81.21,78.05-127.82C1018.75,1154.97,1029.23,1096.38,1022.42,1039.85z
			 M692.71,975.28c23.64-2.31,47.71-7.92,70.99-13.34c33.49-7.8,68.13-15.87,102.4-14.39c0.8,0.03,1.41,0.71,1.38,1.5
			c-0.03,0.62-0.44,1.13-1,1.31c-0.16,0.05-0.33,0.08-0.51,0.07c-33.87-1.47-68.31,6.56-101.61,14.32
			c-23.37,5.45-47.54,11.08-71.37,13.4c-0.79,0.08-1.5-0.5-1.58-1.3C691.33,976.06,691.91,975.36,692.71,975.28z M879.53,993.55
			c-5.45,3.52-11.81,6.19-18.62,8.39c-8.5,2.75-17.72,4.75-26.76,6.72c-7.31,1.59-14.21,3.09-20.46,4.93
			c-40.08,11.76-88.07,14.7-142.64,8.74c-0.79-0.09-1.37-0.8-1.28-1.59c0.09-0.79,0.8-1.36,1.59-1.28
			c54.19,5.91,101.81,3.01,141.52-8.64c6.35-1.86,13.3-3.38,20.66-4.98c16.04-3.49,32.62-7.1,44.43-14.72
			c0.66-0.44,1.56-0.24,1.99,0.43C880.4,992.23,880.2,993.12,879.53,993.55z M1031.74,1004.48c-2.18,3.73-6.34,6.4-10.66,6.22
			c-4.02-0.16-7.8-2.85-9.4-6.54c-3.44-7.95,3.78-17.05,12.05-17.48C1032.65,986.22,1035.48,998.07,1031.74,1004.48z
			 M1128.81,1012.19c0.13-0.78,0.88-1.31,1.67-1.18c9.24,1.58,18.05,5.65,26.57,9.58c3.74,1.73,7.61,3.51,11.38,5.02
			c5.83,2.32,11.96,4.55,17.88,6.7c15.65,5.68,31.83,11.56,45.92,20.35c7.95,4.97,15.85,10.44,23.5,15.74
			c3.74,2.59,7.61,5.28,11.42,7.85c13.25,8.96,25.63,19.27,35.79,29.81c0.55,0.57,0.54,1.49-0.04,2.04
			c-0.16,0.16-0.35,0.27-0.56,0.33c-0.51,0.16-1.09,0.04-1.48-0.37c-10.02-10.4-22.24-20.57-35.33-29.42
			c-3.82-2.58-7.7-5.27-11.45-7.87c-7.61-5.28-15.49-10.73-23.38-15.66c-13.83-8.63-29.86-14.46-45.37-20.09
			c-5.95-2.16-12.1-4.39-17.97-6.73c-3.84-1.53-7.75-3.34-11.52-5.08c-8.35-3.86-16.98-7.84-25.84-9.36
			C1129.2,1013.73,1128.68,1012.98,1128.81,1012.19z M1143.68,1067.58c24.17,14.45,49.16,29.38,75.29,40.53
			c13.09,5.58,25.69,12.65,37.88,19.49c11.01,6.17,22.39,12.56,34.06,17.8c0.73,0.33,1.05,1.18,0.73,1.91
			c-0.17,0.39-0.5,0.66-0.87,0.78c-0.33,0.11-0.7,0.1-1.04-0.06c-11.79-5.3-23.23-11.71-34.29-17.92
			c-12.12-6.8-24.66-13.83-37.61-19.35c-26.31-11.22-51.39-26.21-75.64-40.7c-22.42-13.4-45.61-27.26-69.47-37.92
			c-0.73-0.32-1.05-1.18-0.73-1.91c0.33-0.73,1.18-1.05,1.91-0.73C1097.93,1040.23,1121.19,1054.13,1143.68,1067.58z
			 M1281.79,766.17c-15.45,7.64-28.98,22.1-42.07,36.08c-4.95,5.29-9.62,10.28-14.3,14.81c-12.29,11.88-25.97,20.93-39.19,29.69
			c-6.81,4.51-13.86,9.17-20.69,14.2c-2.68,1.97-5.46,4.05-8.32,6.18c-18.48,13.81-41.38,30.92-62.61,37.78
			c-0.52,0.17-1.03,0.33-1.55,0.48c-0.76,0.23-1.57-0.2-1.8-0.97c-0.23-0.76,0.18-1.55,0.97-1.8c21.2-6.34,44.51-23.8,63.26-37.81
			c2.87-2.14,5.65-4.22,8.34-6.2c6.89-5.07,13.97-9.75,20.81-14.28c13.72-9.08,26.68-17.66,38.78-29.36
			c4.63-4.48,9.28-9.44,14.2-14.7c13.26-14.17,26.97-28.83,42.9-36.7c0.7-0.35,1.58-0.06,1.93,0.65
			C1282.79,764.95,1282.5,765.81,1281.79,766.17z M1064.48,865.45c18.65-10.72,31.09-23.01,45.12-39.38
			c18.51-21.59,46.35-37.26,73.27-52.41c10.24-5.76,19.92-11.21,28.95-16.9c22.51-14.17,50.02-27.21,69.14-35.66
			c0.73-0.32,1.58,0.01,1.9,0.74c0.32,0.73-0.01,1.58-0.74,1.9c-19.03,8.41-46.4,21.39-68.76,35.47
			c-9.09,5.72-18.8,11.19-29.07,16.97c-26.71,15.03-54.32,30.57-72.5,51.78c-14.23,16.6-26.86,29.08-45.87,40
			c-0.09,0.05-0.18,0.09-0.28,0.12c-0.63,0.21-1.35-0.05-1.69-0.66C1063.55,866.73,1063.79,865.84,1064.48,865.45z M1036.54,939.13
			c9.35-0.49,12.33,11.96,8.4,18.69c-2.29,3.92-6.66,6.72-11.19,6.54c-4.22-0.17-8.19-2.99-9.86-6.87
			C1020.27,949.14,1027.86,939.58,1036.54,939.13z M1005.92,906.31c9.46-0.49,12.48,12.1,8.51,18.91c-2.31,3.97-6.74,6.8-11.33,6.61
			c-4.27-0.17-8.29-3.03-9.98-6.95C989.46,916.45,997.13,906.77,1005.92,906.31z M982.25,957.19c-2.13,3.65-6.2,6.26-10.43,6.09
			c-3.93-0.16-7.63-2.79-9.19-6.4c-3.36-7.77,3.7-16.68,11.79-17.11C983.13,939.32,985.91,950.92,982.25,957.19z M973.5,923.3
			c-2.29,3.92-6.66,6.72-11.19,6.54c-4.22-0.17-8.19-2.99-9.87-6.87c-3.61-8.34,3.97-17.9,12.65-18.36
			C974.45,904.13,977.43,916.57,973.5,923.3z M946.77,980.87c9.52-0.5,12.56,12.18,8.56,19.03c-2.33,3.99-6.78,6.84-11.4,6.66
			c-4.3-0.18-8.34-3.04-10.05-6.99C930.21,991.07,937.93,981.33,946.77,980.87z M932.73,968.99c-4.81-0.2-9.33-3.41-11.24-7.83
			c-4.11-9.51,4.53-20.4,14.42-20.92c10.66-0.56,14.05,13.63,9.58,21.3C942.88,966.01,937.9,969.2,932.73,968.99z M895.04,670.03
			c0.72-0.32,1.58,0,1.91,0.73c3.42,7.62,8.05,14.67,12.53,21.5c5.81,8.86,11.83,18.01,15.5,28.74c2.37,6.92,3.89,14.13,5.37,21.11
			c1.12,5.3,2.28,10.79,3.79,16.06c1.84,6.38,3.89,12.81,5.88,19.02c3.24,10.14,6.59,20.62,9.08,31.18
			c4.1,17.38,9.8,34.71,15.3,51.47c1.36,4.15,2.73,8.3,4.07,12.45c0.25,0.76-0.17,1.57-0.93,1.82s-1.57-0.17-1.82-0.93
			c-1.34-4.15-2.7-8.29-4.06-12.44c-5.53-16.82-11.24-34.21-15.37-51.71c-2.47-10.46-5.8-20.88-9.02-30.97
			c-1.99-6.23-4.05-12.68-5.9-19.1c-1.55-5.37-2.71-10.91-3.84-16.26c-1.46-6.89-2.96-14.02-5.27-20.77
			c-3.55-10.38-9.46-19.38-15.18-28.09c-4.54-6.92-9.24-14.08-12.75-21.9C893.99,671.21,894.32,670.36,895.04,670.03z
			 M913.53,849.74c-6.89-10.71-14-21.77-18.47-33.48c-9-23.59-15.19-48.53-21.18-72.65c-5.5-22.14-11.18-45.03-19.01-66.74
			c-0.27-0.75,0.12-1.58,0.87-1.85c0.02-0.01,0.03-0.01,0.05-0.02c0.74-0.24,1.54,0.15,1.8,0.88c7.88,21.86,13.58,44.82,19.09,67.03
			c5.97,24.03,12.13,48.88,21.07,72.31c4.36,11.43,11.4,22.37,18.2,32.95c7.47,11.61,15.19,23.62,19.23,36.14
			c0.24,0.76-0.17,1.57-0.93,1.82l0,0c-0.76,0.24-1.57-0.17-1.82-0.93C928.52,873.04,921.24,861.73,913.53,849.74z M892.33,1209.63
			c-13.82,29.32-13.88,74.53-13.92,98.83c0,0.64-0.42,1.18-1,1.37c-0.14,0.05-0.29,0.07-0.45,0.07c-0.8,0-1.44-0.65-1.44-1.44
			c0.04-24.52,0.1-70.15,14.19-100.05c9.42-19.98,13.66-41.14,16.31-57.33c4.34-26.59,14.39-63.3,28.41-79.25
			c0.52-0.6,1.44-0.66,2.04-0.13c0.6,0.53,0.66,1.44,0.13,2.04c-14.56,16.57-24.28,56.71-27.73,77.81
			C906.2,1167.92,901.9,1189.33,892.33,1209.63z M980.75,1093.48c-6.78,42-21.36,83.59-35.46,123.81
			c-2.53,7.23-5.15,14.7-7.66,21.98c-2.43,7.07-5.84,13.86-9.14,20.42c-3.28,6.54-6.38,12.71-8.59,19.13
			c-0.15,0.45-0.5,0.77-0.92,0.9c-0.29,0.09-0.61,0.1-0.91-0.01c-0.75-0.26-1.15-1.08-0.89-1.83c2.27-6.6,5.56-13.15,8.74-19.48
			c3.25-6.48,6.62-13.18,8.99-20.07c2.51-7.29,5.13-14.77,7.66-22c14.06-40.1,28.59-81.57,35.33-123.31
			c0.13-0.79,0.87-1.32,1.65-1.2C980.34,1091.95,980.88,1092.69,980.75,1093.48z M986.71,1022.04c-2.83,3.78-7.91,6.67-12.96,6.82
			c-4.7,0.14-8.94-2.19-10.54-5.65c-3.45-7.45,5.69-16.8,15.42-17.83C989.11,1004.27,991.57,1015.56,986.71,1022.04z M994.59,987.38
			c-1.89,3.24-5.5,5.56-9.25,5.4c-3.49-0.14-6.77-2.47-8.16-5.68c-2.98-6.9,3.29-14.8,10.46-15.18
			C995.37,971.53,997.83,981.82,994.59,987.38z M1000.78,944.5c7.62-5.87,17.41,2.92,18.02,10.9c0.35,4.65-1.71,9.57-5.65,12.06
			c-3.67,2.32-8.67,2.25-12.35-0.05C992.87,962.46,993.71,949.95,1000.78,944.5z"/>
		<path class="st42" d="M965.1,904.61c-8.68,0.45-16.26,10.01-12.65,18.36c1.68,3.88,5.64,6.69,9.87,6.87
			c4.54,0.19,8.9-2.61,11.19-6.54C977.43,916.57,974.45,904.13,965.1,904.61z"/>
		<path class="st42" d="M1033.75,964.35c4.54,0.19,8.91-2.61,11.19-6.54c3.93-6.73,0.95-19.18-8.4-18.69
			c-8.68,0.45-16.26,10.01-12.65,18.36C1025.56,961.36,1029.53,964.18,1033.75,964.35z"/>
		<path class="st42" d="M1003.09,931.84c4.59,0.19,9.01-2.65,11.33-6.61c3.97-6.81,0.96-19.41-8.51-18.91
			c-8.79,0.46-16.46,10.14-12.81,18.58C994.81,928.81,998.82,931.67,1003.09,931.84z"/>
		<path class="st42" d="M962.62,956.89c1.56,3.61,5.26,6.24,9.19,6.4c4.23,0.17,8.3-2.44,10.43-6.09
			c3.66-6.27,0.88-17.87-7.83-17.42C966.33,940.2,959.26,949.11,962.62,956.89z"/>
		<path class="st42" d="M945.49,961.55c4.47-7.67,1.08-21.85-9.58-21.3c-9.89,0.52-18.53,11.41-14.42,20.92
			c1.91,4.42,6.43,7.63,11.24,7.83C937.9,969.2,942.88,966.01,945.49,961.55z"/>
		<path class="st42" d="M943.93,1006.55c4.62,0.19,9.07-2.66,11.4-6.66c4-6.85,0.97-19.53-8.56-19.03
			c-8.84,0.46-16.56,10.2-12.89,18.69C935.59,1003.51,939.63,1006.38,943.93,1006.55z"/>
		<path class="st42" d="M987.64,971.93c-7.18,0.38-13.45,8.28-10.46,15.18c1.39,3.21,4.67,5.54,8.16,5.68
			c3.75,0.15,7.36-2.16,9.25-5.4C997.83,981.82,995.37,971.53,987.64,971.93z"/>
		<path class="st42" d="M978.63,1005.38c-9.73,1.03-18.87,10.38-15.42,17.83c1.6,3.46,5.84,5.79,10.54,5.65
			c5.05-0.15,10.13-3.04,12.96-6.82C991.57,1015.56,989.11,1004.27,978.63,1005.38z"/>
		<path class="st42" d="M1023.74,986.68c-8.27,0.43-15.49,9.54-12.05,17.48c1.6,3.69,5.38,6.38,9.4,6.54
			c4.32,0.18,8.48-2.49,10.66-6.22C1035.48,998.07,1032.65,986.22,1023.74,986.68z"/>
		<path class="st42" d="M1013.15,967.46c3.94-2.49,6.01-7.41,5.65-12.06c-0.61-7.98-10.39-16.77-18.02-10.9
			c-7.08,5.45-7.91,17.96,0.01,22.91C1004.48,969.71,1009.48,969.78,1013.15,967.46z"/>
		<path class="st34" d="M934.26,886.14L934.26,886.14c0.76-0.25,1.17-1.06,0.93-1.82c-4.04-12.52-11.76-24.53-19.23-36.14
			c-6.81-10.58-13.84-21.52-18.2-32.95c-8.94-23.43-15.11-48.28-21.07-72.31c-5.51-22.21-11.21-45.17-19.09-67.03
			c-0.27-0.73-1.06-1.12-1.8-0.88c-0.02,0-0.03,0.01-0.05,0.02c-0.75,0.27-1.14,1.1-0.87,1.85c7.83,21.72,13.51,44.61,19.01,66.74
			c5.99,24.12,12.18,49.05,21.18,72.65c4.47,11.71,11.59,22.78,18.47,33.48c7.71,11.98,14.99,23.3,18.91,35.47
			C932.68,885.97,933.5,886.38,934.26,886.14z"/>
		<path class="st34" d="M907.07,693.84c5.72,8.71,11.63,17.71,15.18,28.09c2.31,6.75,3.82,13.88,5.27,20.77
			c1.13,5.35,2.3,10.89,3.84,16.26c1.85,6.42,3.91,12.87,5.9,19.1c3.22,10.08,6.56,20.51,9.02,30.97
			c4.13,17.5,9.84,34.89,15.37,51.71c1.36,4.14,2.72,8.29,4.06,12.44c0.25,0.76,1.06,1.17,1.82,0.93s1.17-1.06,0.93-1.82
			c-1.34-4.15-2.7-8.3-4.07-12.45c-5.51-16.76-11.2-34.09-15.3-51.47c-2.49-10.57-5.84-21.05-9.08-31.18
			c-1.99-6.21-4.04-12.64-5.88-19.02c-1.52-5.27-2.67-10.75-3.79-16.06c-1.47-6.98-3-14.19-5.37-21.11
			c-3.67-10.72-9.69-19.88-15.5-28.74c-4.48-6.83-9.12-13.88-12.53-21.5c-0.33-0.73-1.19-1.05-1.91-0.73
			c-0.73,0.33-1.05,1.18-0.73,1.91C897.83,679.76,902.53,686.92,907.07,693.84z"/>
		<path class="st34" d="M692.99,978.15c23.83-2.33,47.99-7.96,71.37-13.4c33.3-7.76,67.74-15.78,101.61-14.32
			c0.18,0.01,0.35-0.02,0.51-0.07c0.56-0.18,0.97-0.69,1-1.31c0.03-0.8-0.58-1.47-1.38-1.5c-34.27-1.48-68.9,6.59-102.4,14.39
			c-23.28,5.42-47.36,11.03-70.99,13.34c-0.8,0.08-1.37,0.78-1.3,1.58C691.49,977.65,692.19,978.23,692.99,978.15z"/>
		<path class="st34" d="M877.97,991.13c-11.82,7.62-28.4,11.23-44.43,14.72c-7.36,1.6-14.31,3.11-20.66,4.98
			c-39.71,11.65-87.32,14.56-141.52,8.64c-0.79-0.09-1.5,0.49-1.59,1.28c-0.09,0.79,0.49,1.5,1.28,1.59
			c54.57,5.96,102.56,3.01,142.64-8.74c6.25-1.83,13.15-3.34,20.46-4.93c9.04-1.97,18.25-3.97,26.76-6.72
			c6.81-2.2,13.17-4.88,18.62-8.39c0.67-0.43,0.86-1.33,0.43-1.99C879.53,990.89,878.63,990.69,877.97,991.13z"/>
		<path class="st34" d="M1065.64,868.07c0.09-0.03,0.19-0.07,0.28-0.12c19.01-10.92,31.65-23.4,45.87-40
			c18.18-21.21,45.79-36.75,72.5-51.78c10.27-5.78,19.98-11.24,29.07-16.97c22.36-14.08,49.74-27.06,68.76-35.47
			c0.73-0.32,1.06-1.17,0.74-1.9c-0.32-0.73-1.18-1.06-1.9-0.74c-19.12,8.45-46.63,21.49-69.14,35.66
			c-9.03,5.69-18.71,11.13-28.95,16.9c-26.92,15.15-54.77,30.82-73.27,52.41c-14.03,16.37-26.47,28.66-45.12,39.38
			c-0.69,0.4-0.93,1.28-0.53,1.97C1064.29,868.02,1065.01,868.28,1065.64,868.07z"/>
		<path class="st34" d="M1280.51,763.58c-15.92,7.87-29.64,22.53-42.9,36.7c-4.92,5.26-9.57,10.22-14.2,14.7
			c-12.1,11.7-25.06,20.28-38.78,29.36c-6.84,4.53-13.92,9.21-20.81,14.28c-2.68,1.97-5.47,4.05-8.34,6.2
			c-18.75,14.01-42.06,31.47-63.26,37.81c-0.79,0.25-1.2,1.03-0.97,1.8c0.23,0.76,1.03,1.2,1.8,0.97c0.52-0.15,1.03-0.32,1.55-0.48
			c21.23-6.86,44.13-23.97,62.61-37.78c2.86-2.14,5.64-4.22,8.32-6.18c6.83-5.03,13.88-9.69,20.69-14.2
			c13.23-8.75,26.9-17.81,39.19-29.69c4.69-4.53,9.36-9.52,14.3-14.81c13.08-13.98,26.62-28.45,42.07-36.08
			c0.71-0.35,1.01-1.22,0.65-1.93C1282.09,763.52,1281.21,763.23,1280.51,763.58z"/>
		<path class="st34" d="M1072,1030.23c-0.32,0.73,0,1.58,0.73,1.91c23.86,10.66,47.05,24.52,69.47,37.92
			c24.25,14.49,49.33,29.48,75.64,40.7c12.94,5.52,25.48,12.55,37.61,19.35c11.06,6.2,22.5,12.62,34.29,17.92
			c0.34,0.15,0.71,0.16,1.04,0.06c0.37-0.12,0.7-0.39,0.87-0.78c0.33-0.73,0-1.58-0.73-1.91c-11.67-5.24-23.05-11.63-34.06-17.8
			c-12.19-6.84-24.8-13.91-37.88-19.49c-26.13-11.14-51.12-26.08-75.29-40.53c-22.5-13.44-45.76-27.35-69.77-38.07
			C1073.18,1029.18,1072.33,1029.51,1072,1030.23z"/>
		<path class="st34" d="M1129.99,1013.86c8.86,1.52,17.49,5.5,25.84,9.36c3.77,1.74,7.68,3.55,11.52,5.08
			c5.87,2.34,12.02,4.57,17.97,6.73c15.51,5.63,31.55,11.45,45.37,20.09c7.89,4.93,15.77,10.38,23.38,15.66
			c3.75,2.6,7.63,5.29,11.45,7.87c13.09,8.85,25.31,19.02,35.33,29.42c0.4,0.41,0.98,0.54,1.48,0.37c0.2-0.07,0.39-0.18,0.56-0.33
			c0.57-0.55,0.59-1.47,0.04-2.04c-10.16-10.54-22.54-20.85-35.79-29.81c-3.81-2.57-7.68-5.25-11.42-7.85
			c-7.64-5.29-15.54-10.77-23.5-15.74c-14.08-8.79-30.27-14.67-45.92-20.35c-5.93-2.15-12.05-4.38-17.88-6.7
			c-3.77-1.5-7.64-3.29-11.38-5.02c-8.52-3.93-17.33-8-26.57-9.58c-0.78-0.13-1.53,0.39-1.67,1.18
			C1128.68,1012.98,1129.2,1013.73,1129.99,1013.86z"/>
		<path class="st34" d="M936.47,1071.69c-0.6-0.53-1.51-0.47-2.04,0.13c-14.02,15.96-24.06,52.66-28.41,79.25
			c-2.65,16.2-6.89,37.35-16.31,57.33c-14.09,29.9-14.16,75.53-14.19,100.05c0,0.8,0.64,1.44,1.44,1.44c0.16,0,0.31-0.02,0.45-0.07
			c0.58-0.19,1-0.73,1-1.37c0.03-24.29,0.1-69.51,13.92-98.83c9.57-20.31,13.87-41.72,16.55-58.1c3.45-21.1,13.17-61.24,27.73-77.81
			C937.12,1073.12,937.07,1072.21,936.47,1071.69z"/>
		<path class="st34" d="M979.56,1091.83c-0.78-0.13-1.53,0.41-1.65,1.2c-6.74,41.75-21.27,83.21-35.33,123.31
			c-2.53,7.23-5.15,14.7-7.66,22c-2.37,6.89-5.73,13.59-8.99,20.07c-3.18,6.33-6.47,12.88-8.74,19.48
			c-0.26,0.75,0.14,1.58,0.89,1.83c0.31,0.11,0.63,0.1,0.91,0.01c0.42-0.13,0.77-0.46,0.92-0.9c2.21-6.41,5.31-12.59,8.59-19.13
			c3.3-6.57,6.71-13.35,9.14-20.42c2.5-7.29,5.12-14.76,7.66-21.98c14.1-40.22,28.67-81.81,35.46-123.81
			C980.88,1092.69,980.34,1091.95,979.56,1091.83z"/>
		<path class="st32" d="M160.94,1374.56c-0.56,29.7,2.41,61.13,9.67,88.4c2.84,10.67,12.41,51.9,19.91,56.63
			c12.38,0.89,24.35-6.59,36.33-13.18c-17.15-39.18-31.99-79.88-39.3-121.83c-6.98-40.05-0.13-81.45-12.34-119.58
			c-6.44,4.43-14.24,7.64-21.89,9.3C163.87,1304.69,161.58,1340.72,160.94,1374.56z"/>
		<path class="st38" d="M59.46,726.35c-7.64-12.79-28.24-16.47-41.22-9.39C11.49,720.64,5.19,728.28,0,737.07v186.65
			c18.3-38.34,38.07-74.79,51.96-115.11C59.44,786.9,72.87,748.8,59.46,726.35z"/>
		<path class="st32" d="M29.51,1315.18c9.25,48.13,23.15,99.87,40.58,145.81c6.82,17.98,31.57,87.12,41.77,96.47
			c14.53,4.21,25.8-5.25,37.39-13.29c-32.78-67.5-63.41-136.96-85.8-206.75c-13.43-41.87-20.76-83.38-30.99-124.49
			c-8.95-3.24-17.89-6.35-26.8-9.42C15.91,1240.26,22.45,1278.43,29.51,1315.18z"/>
		<path class="st38" d="M32.47,1212.93c0.23,0.08,0.46,0.16,0.69,0.25c21.4,7.77,42.84,15.79,64.06,24.11
			c29.39-11.73,64.74-20.8,96.97-24.42c3.86-5.42,7.71-10.85,12-15.97c32.55-38.86,64.61-72.4,87.99-117.97
			c12.93-25.19,32.15-60.49,24.75-89.64c-3.87-15.24-19.23-32.98-35.18-25.83c-11.71,5.25-27.84,30.52-33.55,43.34
			c6.68-16.38,11.99-48.67,4.28-64.36c-6.61-13.44-25.45-21.44-38.84-14.19c-23.5,12.72-33.92,54.15-39.99,77.66
			c-4.76,18.42-8.27,36.79-11.25,55.21c-0.13-19.31-1.42-38.74-4.99-58.87c-4.93-27.88-10.96-67.62-34.48-86.36
			c-12.3-9.8-35.26-14.64-43.64,0.7c-6.15,11.26-3.73,41.14-0.52,54.81c-4.58-17.09-19.87-46.02-35.51-53.85
			c-13.39-6.71-33.23-1.69-39.52,12.18c-11.03,24.34,5.72,63.64,15.09,86.04c15.55,37.16,32.96,84.89,51.67,123.67
			c-19.26-26.56-38.64-51.69-64.8-73.58c-2.45-2.05-5.02-4.22-7.69-6.44v142.13c1.89,0.65,3.78,1.3,5.67,1.96
			C14.58,1206.58,23.52,1209.68,32.47,1212.93z"/>
		<path class="st32" d="M97.21,1237.29c-1.58,0.63-3.15,1.26-4.69,1.9c5.39,14.31,32.89,36.91,50.84,36.39
			c3.2-0.09,6.56-0.54,9.95-1.28c7.65-1.66,15.45-4.87,21.89-9.3c3.47-2.38,6.55-5.1,8.99-8.13c10.88-13.54,8.08-28.89,11.92-44.23
			c-0.64,0.07-1.29,0.15-1.93,0.23C161.96,1216.49,126.6,1225.56,97.21,1237.29z"/>
		<path class="st38" d="M1981.58,718c-9.9-14.07-32.77-8.25-44.36,1.7c-22.17,19.02-24.67,56.95-27.15,83.61
			c-3.22,34.72,0.82,66.92,5.97,100.07c-14.35-41.61-36.1-88.79-51.58-126.96c-9.33-23-25.48-63.58-51.02-73.3
			c-14.55-5.54-32.57,5.11-37.45,19.62c-5.7,16.94,4.04,48.95,13.03,64.65c-7.52-12.23-27.28-35.65-39.86-39.39
			c-17.14-5.1-30.31,14.95-32.17,30.92c-3.56,30.54,20.68,63.71,37.19,87.5c11.91,17.17,24.97,32.21,38.78,46.31
			c-15.42-11.22-31.21-22.03-47.93-31.96c-21.34-12.68-58.74-35.24-84.96-27.54c-14.94,4.39-22.85,23.76-17.97,38.27
			c5.7,16.94,32.82,36.55,49.46,43.62c-13.38-5.19-43.28-11.91-55.57-7.28c-16.73,6.3-15.1,30.24-6.93,44.08
			c15.63,26.48,55,38.25,82.52,47.22c49.79,16.22,97.21,17.47,148.82,22.22c6.81,0.63,13.51,1.79,20.22,2.95
			c25.99-20.58,58.18-39.46,87.95-52.12c9.4-21.32,19.19-42.58,29.11-63.64c0.76-1.62,1.53-3.23,2.3-4.84V737.07
			c-6.46,10.95-11.19,23.68-12.91,32.78C1989.1,756.74,1988.85,728.33,1981.58,718z"/>
		<path class="st32" d="M1931.24,1026.52c13.85-1.01,27.54,4.29,40.28,11.93c5.82-16.03,6.48-37.91,1.84-48.26
			c-1.58,0.64-3.18,1.32-4.77,2c-29.77,12.66-61.96,31.54-87.95,52.12c-0.52,0.41-1.05,0.81-1.56,1.23
			c8.22,4.97,14.73,11.63,22.37,16.63c-1.08-2.23-1.84-4.34-2.17-6.26C1896.45,1039.32,1916.34,1027.61,1931.24,1026.52z"/>
		<path class="st38" d="M1931.24,1026.52c-14.9,1.08-34.79,12.8-31.96,29.39c0.33,1.92,1.09,4.03,2.17,6.26
			c5.8,11.89,20.94,27.03,29.73,33.53c-13.47-9.27-41.86-19.97-58.07-15.26c-13.89,4.04-25.65,20.78-22.14,34.92
			c6.16,24.82,41.74,42.02,61.88,51.93c28.4,13.98,57.62,24.07,87.16,34.25v-142.13c-8.58-7.13-18.22-14.81-28.49-20.96
			C1958.78,1030.82,1945.08,1025.52,1931.24,1026.52z"/>
		<path class="st39" d="M557.33,787.83c31.25-26.77,70.97-52.78,109.11-70.77c2.48-8.28,4.93-16.58,8.06-24.68
			c23.76-61.49,49.14-116.22,58.79-182.12c5.34-36.43,14.18-87.94-7.16-120.71c-11.16-17.14-37.51-32.52-54.14-17.02
			c-12.21,11.38-21.46,49.24-23.11,67.43c1.35-22.97-5.67-64.94-21.75-81.01c-13.78-13.77-40.32-15.7-53.76-1.16
			c-23.59,25.52-19.02,80.89-16.63,112.36c1.87,24.67,5.26,48.76,9.33,72.67c-8.26-23.71-18.01-47.09-30.84-70.36
			c-17.77-32.25-41.87-78.62-78.68-91.82c-19.25-6.91-49.54-3.23-53.42,19.18c-2.85,16.45,12.68,52.2,22.36,67.68
			c-12.81-19.11-43.78-48.3-66.3-51.38c-19.3-2.64-41.61,11.87-43.52,31.58c-3.36,34.59,33.75,75.93,54.68,99.56
			c34.73,39.21,76.19,90.65,115.5,130.52c-34.86-24.61-69.26-47.41-110.64-63.36c-31.77-12.25-76.41-30.83-110.61-16.32
			c-17.88,7.59-37.44,30.35-27.01,49.59c7.66,14.12,39.89,30.47,55.96,35.59c-20.46-5.75-59.9-7.01-77.88,5.59
			c-15.4,10.8-22.85,36.34-12.59,52.28c18,27.96,69,34.2,97.96,37.94c56.06,7.26,110.92,4.85,167.33,5.96
			C497.98,785.63,527.74,786.5,557.33,787.83z"/>
		<path class="st32" d="M552.37,792.14c12.65,15.35,55.97,31.63,77.84,23.45c17.41-6.51,36.05-22.68,42.4-40.16
			c7.71-21.23-2.19-38.95-3.9-59.43c-0.76,0.35-1.52,0.71-2.27,1.07c-38.14,17.98-77.86,44-109.11,70.77
			C555.66,789.27,554,790.7,552.37,792.14z"/>
		<path class="st43" d="M1033.39,38.97c36.38-10.46,82.09,16.11,113.3,37.41c35.11-17.41,68.56-45.32,97.1-76.38h-55.5
			c-2.9,1.83-5.81,3.6-8.68,5.35c-6.24,3.79-12.69,7.7-18.69,12.09c-11.06,8.1-24.92,13.75-38.17,18.84
			c-0.42,0.16-0.88,0.09-1.22-0.15c-0.2-0.14-0.37-0.35-0.47-0.6c-0.26-0.68,0.08-1.43,0.75-1.69c13.08-5.03,26.76-10.6,37.56-18.51
			c6.09-4.46,12.59-8.4,18.88-12.22c1.69-1.02,3.39-2.06,5.1-3.11h-107.76c-2.39,2.95-4.56,5.87-6.34,8.77
			c-0.38,0.62-1.18,0.81-1.8,0.43c-0.02-0.02-0.05-0.03-0.07-0.05c-0.56-0.39-0.72-1.16-0.36-1.75c1.5-2.44,3.28-4.92,5.22-7.4
			h-61.48C1023.46,12.41,1033.03,25.9,1033.39,38.97z"/>
		<path class="st32" d="M993.3,103.8c3.77-6.53,6.87-13.42,8.81-20.96c5,2.24,19.62,3.37,19.74,10.29
			c0.08,4.54-6.8,13.56-13.05,21.27c18.08,10.22,39.33,15.14,62.92,10.31c34.36-7.03,52.6-25.98,81.9-43.53
			c-2.22-1.55-4.53-3.16-6.93-4.8c-31.21-21.3-76.92-47.87-113.3-37.41c-0.36-13.08-9.94-26.56-22.65-38.97h-62.51
			c-0.65,2.83-1.38,5.71-2.21,8.67C940.15,29.5,958.77,75.82,993.3,103.8z"/>
		<path class="st32" d="M1002.11,82.84c-1.94,7.54-5.04,14.43-8.81,20.96c-10.11,17.48-25.08,32.32-35.74,49.79
			c-10.65,17.45-19.37,35.95-29.03,54.06c-1.21,10.98-2.84,21.83-4.55,31.97c-3.75-0.82-7.65-2.16-11.6-3.89
			c-20.08,32.8-43.42,64.08-69.78,91.4c6.68,4.71,17.26,17.53,25.77,18.01c10.21,0.58,17.6-14.12,24.08-23.26
			c13.8-19.46,28.41-38.85,40.34-59.26c4.84-8.28,9.26-16.73,13.42-25.28c-3.4-4.26-5.47-8.63-5.35-12.76
			c4.94-7.88,12.53-15.84,21.61-23.18c11.06-25.49,21.96-51.1,36.98-75.18c1.44-2.3,5.26-6.78,9.34-11.82
			c6.25-7.71,13.13-16.72,13.05-21.27C1021.74,86.21,1007.12,85.08,1002.11,82.84z"/>
		<path class="st32" d="M940.87,224.58c-0.12,4.13,1.95,8.5,5.35,12.76c10.29,12.91,32.7,24.88,42.9,26.56
			c47.3,7.79,92.4-43.22,129.9-64.06c-19.61-16.17-53.27-30.28-78.4-30.78c-23.45-0.47-55.45,14-78.13,32.34
			C953.41,208.74,945.81,216.7,940.87,224.58z"/>
		<path class="st32" d="M928.53,207.65c3.73-33.82,3.51-68.87-10.55-87.89c-17.35-23.46-33.89-39.83-42.87-71.14
			c-35.42,61.68-40.09,111.39-15.79,143.78c11.71,15.62,33.11,34.58,53.07,43.32c3.95,1.73,7.84,3.07,11.6,3.89
			C925.69,229.48,927.32,218.63,928.53,207.65z"/>
		<path class="st44" d="M1067.36,9.15c0.02,0.02,0.05,0.03,0.07,0.05c0.62,0.38,1.42,0.18,1.8-0.43c1.78-2.9,3.95-5.82,6.34-8.77
			h-3.35c-1.94,2.48-3.73,4.96-5.22,7.4C1066.64,7.99,1066.8,8.76,1067.36,9.15z"/>
		<path class="st44" d="M1159.36,15.33c-10.8,7.91-24.48,13.48-37.56,18.51c-0.67,0.26-1.01,1.02-0.75,1.69
			c0.1,0.25,0.26,0.46,0.47,0.6c0.35,0.24,0.8,0.32,1.22,0.15c13.25-5.09,27.11-10.74,38.17-18.84c6-4.39,12.45-8.31,18.69-12.09
			c2.87-1.74,5.78-3.52,8.68-5.35h-4.95c-1.7,1.05-3.41,2.08-5.1,3.11C1171.95,6.93,1165.45,10.87,1159.36,15.33z"/>
		<path class="st43" d="M1317,1893.29c-52.02-0.97-102.73,1.48-143.69,32.87c23.31-34.88,34.95-85.35,33.08-119.37
			c-53.37,27.99-91.5,44.66-128.97,97.85c13.73-50.59,37.06-119.22,10.28-172.88c-62.82,44.05-124.33,144.32-125.67,230.84
			c13.81,9.24,33.5,22.55,48.71,37.4h61.48c3.34-4.26,7.16-8.54,10.91-12.74c4.79-5.36,9.73-10.9,13.65-16.36
			c1.34-1.86,2.67-3.71,4-5.55c9.33-12.92,18.14-25.12,25.75-39.21c3.69-6.83,7.09-14.1,10.38-21.12
			c5.37-11.46,10.92-23.31,17.96-33.91c0.4-0.6,1.21-0.77,1.81-0.37c0.01,0.01,0.02,0.01,0.03,0.02c0.58,0.41,0.73,1.2,0.33,1.79
			c-6.94,10.43-12.44,22.19-17.77,33.57c-3.31,7.06-6.73,14.36-10.45,21.25c-7.69,14.25-16.55,26.51-25.93,39.5
			c-1.33,1.84-2.66,3.68-4,5.54c-4,5.57-9,11.16-13.83,16.57c-3.36,3.76-6.6,7.41-9.51,11h107.76c5.27-3.25,10.57-6.65,15.53-10.43
			c9.83-7.49,18.55-16.61,26.97-25.43c7.64-8,15.55-16.27,24.3-23.35c0.56-0.46,1.39-0.37,1.84,0.19c0.45,0.56,0.37,1.39-0.19,1.84
			c-8.62,6.98-16.47,15.19-24.05,23.12c-8.5,8.89-17.28,18.08-27.28,25.7c-3.92,2.99-8.03,5.73-12.17,8.35h55.5
			C1276.03,1964.91,1302,1925.8,1317,1893.29z M1051.29,1822.18c-22.3,49.49-38.18,92.55-43.19,141.82
			c-0.07,0.72-0.72,1.24-1.44,1.17c-0.23-0.02-0.44-0.11-0.62-0.23c-0.37-0.26-0.6-0.72-0.55-1.2c5.04-49.62,21-92.91,43.41-142.63
			c0.3-0.66,1.07-0.95,1.73-0.66C1051.29,1820.75,1051.59,1821.52,1051.29,1822.18z"/>
		<path class="st32" d="M955.97,1958.53c-3.06,13.86-4.38,26.9-7.74,41.47h62.51c-15.2-14.85-34.9-28.16-48.71-37.4
			C959.86,1961.14,957.82,1959.78,955.97,1958.53z"/>
		<path class="st44" d="M1050.63,1820.45c-0.66-0.3-1.43,0-1.73,0.66c-22.41,49.73-38.37,93.01-43.41,142.63
			c-0.05,0.49,0.18,0.94,0.55,1.2c0.18,0.13,0.39,0.21,0.62,0.23c0.72,0.07,1.36-0.45,1.44-1.17c5-49.27,20.88-92.33,43.19-141.82
			C1051.59,1821.52,1051.29,1820.75,1050.63,1820.45z"/>
		<path class="st44" d="M1098.91,1972.43c1.34-1.86,2.67-3.71,4-5.54c9.38-12.99,18.24-25.26,25.93-39.5
			c3.72-6.9,7.14-14.19,10.45-21.25c5.33-11.37,10.84-23.13,17.77-33.57c0.39-0.59,0.24-1.39-0.33-1.79
			c-0.01-0.01-0.02-0.01-0.03-0.02c-0.6-0.4-1.41-0.24-1.81,0.37c-7.04,10.6-12.6,22.45-17.96,33.91
			c-3.29,7.03-6.69,14.29-10.38,21.12c-7.61,14.1-16.42,26.3-25.75,39.21c-1.33,1.84-2.66,3.69-4,5.55
			c-3.92,5.46-8.87,11-13.65,16.36c-3.75,4.2-7.57,8.48-10.91,12.74h3.35c2.91-3.59,6.15-7.23,9.51-11
			C1089.91,1983.6,1094.91,1978,1098.91,1972.43z"/>
		<path class="st44" d="M1227.73,1965.95c7.59-7.94,15.43-16.15,24.05-23.12c0.56-0.46,0.65-1.28,0.19-1.84
			c-0.45-0.56-1.28-0.65-1.84-0.19c-8.75,7.08-16.65,15.35-24.3,23.35c-8.43,8.82-17.14,17.94-26.97,25.43
			c-4.96,3.78-10.25,7.18-15.53,10.43h4.95c4.14-2.61,8.25-5.36,12.17-8.35C1210.45,1984.03,1219.23,1974.84,1227.73,1965.95z"/>
		<path class="st32" d="M1326.77,502.21c11.03,29.81,28.41,45.62,56.44,59.42c14.74,7.26,29.95,12.24,46.35,14.86
			c10.91,1.75,23.33,6.8,34.36,5.28c0.67-0.16,1.33-0.23,1.98-0.28c-47.94-28.68-115.35-84.84-136.5-136.7
			c-1.36-3.35,0.24-7.17,3.59-8.53c3.39-1.35,7.17,0.24,8.53,3.59c16.7,40.94,70.22,91.19,118.82,122.79
			c-5.03-9.42-9.52-19.51-14.07-27.87c-11.32-20.83-21.75-42.1-35.9-61.13c-5.47-7.35-12.12-13.65-17.06-21.47
			c-6.34-10.03-7.96-20.61-12.33-31.59c-9.53-23.99-25.55-41.22-41.36-60.45c-9.73-11.83-17.88-24.46-27.33-36.49
			c-10.57-13.46-24.71-24.69-34.75-38.15c-4.3,16.69-1.57,37.7,0.39,54.39C1284.63,397.14,1306.9,448.48,1326.77,502.21z"/>
		<path class="st32" d="M1586.61,363.31c-1.25-3.39,0.47-7.15,3.85-8.41c0,0,0.01,0,0.01,0c3.39-1.25,7.15,0.48,8.41,3.87
			c25.2,68.08,32.29,130.06,24.47,213.94c-0.07,0.76-0.15,1.51-0.24,2.27c7.45-7.56,17.26-10.74,22.74-17.42
			c22.65-27.62,20.88-75.01,19.15-108.37c-1.87-35.99-17.46-70.82-30.59-104.03c-14.39-36.41-39.17-80.71-72.03-103.07
			c-2.71,21.03,3.87,45.17,5.62,66.17c2.51,30.18-2.33,58.01-6.22,87.96c-5.29,40.77-2.21,74.81,7.39,114.57
			c6.26,25.9,23.69,47.46,40.23,68.23c0.37-2.52,0.68-5.03,0.91-7.52C1617.95,489.71,1611.08,429.4,1586.61,363.31z"/>
		<path class="st32" d="M1413.33,204.67c2.58-0.29,4.91,1.56,5.24,4.12c12.47,89.11,39.63,173.65,74.97,255.19
			c3.31-16.23,7.57-31.56,9.57-47.61c4.99-40.11,0.92-84.79-4.23-124.3c-5.46-41.88-22.47-81.39-32.77-121.93
			c-11.91-46.88-10.42-101.54-54.69-132.33c-10.87,21.73-12.36,49.36-18.61,72.66c-11.61,43.3-25.19,78.09-23.94,123.36
			c1.28,46.54,17.35,83.42,36.72,125.03c10.1,21.71,18.35,45.39,32.16,65.47c11.21,16.3,26.91,28.43,40.64,42.15
			c-33.44-82.26-58.67-167.33-69.27-256.56C1408.84,207.31,1410.72,204.96,1413.33,204.67z"/>
		<path class="st40" d="M1341.52,439.85c-1.36-3.35-5.15-4.94-8.53-3.59c-3.35,1.37-4.95,5.18-3.59,8.53
			c21.15,51.86,88.55,108.02,136.5,136.7c4.22,2.53,8.3,4.84,12.17,6.92c11.27,6.04,23.42,10.27,35.17,14.35
			c12.22,4.25,23.75,8.26,34.09,14.08c0.54,0.3,1.11,0.51,1.68,0.65c38.38,73.84,43.12,90.67,83.64,162.11
			c3.31,5.53,10.48,7.33,16.01,4.02c5.53-3.31,7.33-10.48,4.02-16.01c-28.95-48.74-21.34-42.46-50.04-92.13
			c0.8-17.17,5.42-34.53,10.3-52.8c4.15-15.55,8.43-31.61,10.18-47.7c0.08-0.76,0.17-1.51,0.24-2.27
			c7.82-83.88,0.73-145.87-24.47-213.94c-1.25-3.39-5.02-5.12-8.41-3.87c0,0-0.01,0-0.01,0c-3.38,1.26-5.11,5.02-3.85,8.41
			c24.47,66.09,31.34,126.41,23.72,208.18c-0.23,2.5-0.54,5.01-0.91,7.52c-1.94,13.38-5.58,27.03-9.12,40.29
			c-3.25,12.15-6.55,24.55-8.65,37.02c-35.75-62.7-69.59-126.54-98.11-192.34c-35.34-81.54-62.5-166.08-74.97-255.19
			c-0.34-2.56-2.66-4.4-5.24-4.12c-2.61,0.29-4.5,2.64-4.21,5.25c10.6,89.23,35.84,174.3,69.27,256.56
			c18.19,44.75,38.8,88.68,60.83,131.97c-7.14-2.98-14.48-5.55-21.68-8.05c-11.27-3.92-22.92-7.97-33.28-13.52
			c-7.7-4.13-15.74-8.92-23.92-14.24C1411.75,531.04,1358.22,480.8,1341.52,439.85z"/>
		<path class="st45" d="M1572.25,1207.66c-111.45,136.44-126.47,220.97-116.68,269.42c15.49,6.49,28.71,15.74,35.5,28.31
			c12.89,4.67,25.31,24.33,32.1,46.25c61.63,23.32,138.63,4.93,169.78-3.71c49.99-13.87,129.44-59.15,134.72-113.84
			c4.51-46.71-122.12,16.6-131.46,20.18c11.17-12.04,58.13-52.06,67.72-65.3c13.04-18,59.22-70.26,49.59-97.72
			c-12.5-35.6-98,43.2-107.06,49.51c-10.69,7.45-21.97,14.81-33.12,22.46c7.04-8.39,13.88-17.01,20.4-25.95
			c21.32-29.22,74.64-97.37,56.73-134.43c-44.38-5.59-96.41,46.49-124.06,73.67c-18.33,18.02-35.91,37.92-52.34,58.47
			c1.6-2.56,3.2-5.12,4.78-7.67c25.75-41.32,70.59-96.96,68.51-150.12C1645.48,1129.09,1585.42,1191.54,1572.25,1207.66z"/>
		<path class="st32" d="M1491.08,1505.4c-6.79-12.57-20.01-21.82-35.5-28.31c-23.95-10.04-53.32-13.47-72.68-12.31
			c-2.11,21.77,35.65,42.57,52.12,51.4c7.37,3.95,14.3,4.75,21.3,5.24c10.46-7.98,19.09-14.74,23.84-18.83
			c16.19,12.5,3.66,18.84-0.98,23.4c-0.93,0.92-3.26,3-6.67,6c-3.58,31.87,8.04,74.68,39.22,87.83
			c19.61-9.47,19.99-40.62,11.45-68.18C1516.39,1529.73,1503.96,1510.07,1491.08,1505.4z"/>
		<path class="st32" d="M1480.17,1502.59c-4.75,4.09-13.38,10.85-23.84,18.83c-29.5,22.5-73.61,54.68-86.66,63.91
			c-17.84,12.61-37.61,24.52-60.96,31.97c-11.88,3.79-12.3,20.08-0.55,27.63c6.14,3.95,11.92,4.57,18.06,2.53
			c17.25-5.73,118.37-90.99,146.29-115.47c3.42-3,5.74-5.08,6.67-6C1483.83,1521.43,1496.36,1515.09,1480.17,1502.59z"/>
		<path class="st42" d="M1104.57,1295.41c-12.89,15.72-25.22,38.54-14.47,58.66c4.4,8.24,15.88,17.56,24.06,22.01
			c6.79,3.69,9.7,2.08,17.25,1.21c27.94-3.25,56.02-5,63.08-37.16c2.55-11.64-2.39-24.83-12.01-42.79
			C1168.67,1268.64,1122.28,1273.8,1104.57,1295.41z M1158.51,1328.15c-1.56,17.24-18.87,23.62-30.01,13.25
			c-8.62-8.03,0.14-25.63,9.42-27.94C1141.22,1312.64,1159.24,1320.11,1158.51,1328.15z"/>
		<path class="st41" d="M1137.92,1313.46c-9.28,2.31-18.05,19.91-9.42,27.94c11.14,10.37,28.45,3.99,30.01-13.25
			C1159.24,1320.11,1141.22,1312.64,1137.92,1313.46z"/>
		<path class="st42" d="M1165.46,1449.29c-5.44-6.91-16.88-16.2-24.35-16.87c-8.79-0.79-22.55,4.22-29.89,8.85
			c-14.01,8.82-24.07,30.1-21.55,46.79c1.68,11.12,13.24,20.49,21.51,27.03c28.15,22.28,59.12-0.91,64.61-31.64
			C1177.55,1473.63,1178.7,1466.35,1165.46,1449.29z M1137.88,1496.16c-17.19,3.39-28.31-11.61-21.4-25.38
			c5.34-10.66,24.94-7.15,29.82,1.21C1148.03,1474.96,1145.9,1494.58,1137.88,1496.16z"/>
		<path class="st42" d="M1319.27,1381.96c1.15-9.14,1.82-22.4-3.4-30.57c-1.63-2.55-7.08-5.14-18.7-13.03
			c-12.04-28.51-51.57-14.21-63.67,6.71c-14.19,24.53,2.79,75.73,32.84,80.64C1293,1430.06,1316.25,1406.07,1319.27,1381.96z
			 M1292.32,1371.43c-1.56,17.24-18.87,23.62-30.01,13.25c-8.62-8.03,0.14-25.63,9.42-27.94
			C1275.03,1355.92,1293.05,1363.39,1292.32,1371.43z"/>
		<path class="st42" d="M1264.69,1456.61c-0.65-16-32.63-6.69-39.52-2.25c-18.23,11.74-19.89,41.58-0.64,53.78
			c6.54,4.15,22.78,7.43,30.56,6.06c8.31-1.47,13.81-8.98,15.65-16.8c1.77-7.5,3.17-21.62-0.04-29.06L1264.69,1456.61z
			 M1254.71,1492.3c-11.14,9.46-25.34,3.06-25.91-9.78c-0.44-9.93,15.25-15.35,22.2-11.25
			C1253.48,1472.73,1259.91,1487.89,1254.71,1492.3z"/>
		<path class="st42" d="M1184.91,1395.25c-17.93,9.26-14.54,33.64-1.39,45.36c13.16,11.73,30.27,2.95,37.99-10.3
			c2.34-4.02,3.11-7.92,2.55-17.07C1221.79,1398.74,1197.4,1388.79,1184.91,1395.25z M1208.87,1417.19
			c-0.93,10.23-11.2,14.02-17.81,7.86c-5.12-4.76,0.09-15.21,5.59-16.58C1198.61,1407.98,1209.31,1412.42,1208.87,1417.19z"/>
		<path class="st42" d="M1029.8,1381.02c-17.65,19.93-3.56,70.66,28.41,60.49c5.27-1.68,10.65-4.59,15.85-6.69
			c3.72-1.5,8.65-3.34,11.8-5.9c3.37-2.74,5.11-7.47,6.2-11.56c1.32-4.95,0.84-10.73,0.67-15.74c-0.16-4.92-2.67-9.15-2.08-19.1
			c-3.66-8.36-16.4-13.1-24.77-13.97C1053.71,1367.29,1038.1,1371.65,1029.8,1381.02z M1071.07,1396.57
			c1.5,2.57-0.34,19.51-7.26,20.87c-14.84,2.92-24.44-10.02-18.48-21.91C1049.94,1386.33,1066.86,1389.36,1071.07,1396.57z"/>
		<path class="st41" d="M1271.73,1356.74c-9.28,2.31-18.05,19.91-9.42,27.94c11.14,10.37,28.45,3.99,30.01-13.25
			C1293.05,1363.39,1275.03,1355.92,1271.73,1356.74z"/>
		<path class="st42" d="M1014.46,1477.39c-21.91,10.2-35.1,54.27-16.51,72.4c16.49,16.08,44.47,10.7,58.38-4.66
			c5.27-5.83,12.23-14.76,12.58-23.02c0.11-2.58-2.43-7.05-6.69-18.25C1067.76,1478.05,1033.15,1468.7,1014.46,1477.39z
			 M1042.65,1524.58c-9.53,11.28-24.74,7.27-27.45-5.43c-2.1-9.82,12.64-17.84,20.25-14.91
			C1038.17,1505.29,1047.09,1519.32,1042.65,1524.58z"/>
		<path class="st41" d="M1035.46,1504.24c-7.61-2.93-22.35,5.08-20.25,14.91c2.71,12.69,17.92,16.7,27.45,5.43
			C1047.09,1519.32,1038.17,1505.29,1035.46,1504.24z"/>
		<path class="st42" d="M1134.8,1551.37c-15.71-13.1-54.2-7.29-61.37,13.48c-6.36,18.43,7.85,37.9,24.63,43
			c6.36,1.93,15.71,4.04,22.16,1.33c2.01-0.85,4.52-4.41,11.56-11.71C1153.52,1592.4,1148.2,1562.54,1134.8,1551.37z
			 M1108.85,1589.97c-12.07-3.22-14.48-16.31-5.75-22.96c6.76-5.15,18.21,3.24,18.71,10.12
			C1122,1579.58,1114.48,1591.47,1108.85,1589.97z"/>
		<path class="st41" d="M1103.11,1567.01c-8.74,6.65-6.32,19.74,5.75,22.96c5.63,1.5,13.15-10.39,12.97-12.84
			C1121.32,1570.25,1109.87,1561.86,1103.11,1567.01z"/>
		<path class="st41" d="M1191.06,1425.05c6.61,6.16,16.89,2.37,17.81-7.86c0.43-4.77-10.26-9.21-12.22-8.72
			C1191.14,1409.84,1185.94,1420.29,1191.06,1425.05z"/>
		<path class="st41" d="M1251.01,1471.27c-6.95-4.1-22.65,1.32-22.2,11.25c0.57,12.84,14.77,19.23,25.91,9.78
			C1259.91,1487.89,1253.48,1472.73,1251.01,1471.27z"/>
		<path class="st41" d="M1116.48,1470.78c-6.9,13.77,4.21,28.77,21.4,25.38c8.01-1.58,10.15-21.2,8.41-24.18
			C1141.41,1463.63,1121.82,1460.12,1116.48,1470.78z"/>
		<path class="st41" d="M1045.33,1395.53c-5.96,11.89,3.64,24.84,18.48,21.91c6.92-1.36,8.76-18.31,7.26-20.87
			C1066.86,1389.36,1049.94,1386.33,1045.33,1395.53z"/>
		<path class="st42" d="M1169.2,1544.68c-0.36,4.46,0.18,9.38,0.16,13.91c-0.01,3.24-0.15,7.5,0.81,10.64
			c1.02,3.36,4.03,6.11,6.76,8.18c3.3,2.5,7.77,3.91,11.57,5.32c3.73,1.38,7.66,0.8,14.93,4.29c7.38-0.18,14.82-8.27,18.04-14.26
			c4.68-8.72,6.19-21.74,1.72-30.82C1213.66,1522.61,1171.38,1517.63,1169.2,1544.68z M1198.91,1568.06
			c-2.38,0.34-14.5-6.23-13.4-11.82c2.35-12,14.98-15.23,22.06-7.13C1213.04,1555.38,1205.6,1567.11,1198.91,1568.06z"/>
		<path class="st41" d="M1185.51,1556.24c-1.1,5.6,11.02,12.16,13.4,11.82c6.69-0.95,14.13-12.68,8.66-18.95
			C1200.49,1541.01,1187.86,1544.23,1185.51,1556.24z"/>
		<path class="st34" d="M504.61,1109.22c-11.47,3.34-25.03,10.3-26.51,23.63c-0.61,5.46,1.86,13.79,4.35,18.67
			c2.06,4.05,4.01,4.23,7.96,6.32c14.63,7.71,28.82,16.19,42.93,2.95c5.11-4.79,7.09-12.83,8.4-24.73
			C544.57,1117.55,520.37,1104.63,504.61,1109.22z M519.88,1143.02c-6.49,7.84-17,5.18-18.95-3.55
			c-1.51-6.75,8.59-12.38,13.85-10.41C516.65,1129.76,522.9,1139.37,519.88,1143.02z"/>
		<path class="st34" d="M514.78,1129.06c-5.27-1.97-15.36,3.66-13.85,10.41c1.95,8.73,12.46,11.39,18.95,3.55
			C522.9,1139.37,516.65,1129.76,514.78,1129.06z"/>
		<path class="st34" d="M482.99,1204.05c-0.34-5.16-2.8-13.46-6.2-16.27c-4-3.3-12.34-5.45-17.43-5.64
			c-9.73-0.38-21.67,6.59-25.99,15.52c-2.88,5.95-0.39,14.33,1.44,20.25c6.24,20.15,28.96,19.2,41.83,6.13
			C480.76,1219.86,483.74,1216.72,482.99,1204.05z M466.16,1208.68c-0.15,2.02-7.7,10.82-12.11,8.92
			c-9.46-4.07-9.86-15.04-1.94-19.42C458.24,1194.8,466.57,1203.01,466.16,1208.68z"/>
		<path class="st34" d="M550.61,1176.14c-15.03,7.18-23.81,37.64-10.88,50c11.48,10.97,30.72,7.07,40.2-3.61
			c3.59-4.05,8.33-10.25,8.51-15.95c0.06-1.78-1.73-4.84-4.74-12.53C587.34,1176.22,563.42,1170.02,550.61,1176.14z M570.36,1208.46
			c-6.49,7.84-17,5.18-18.95-3.55c-1.51-6.75,8.59-12.38,13.85-10.41C567.13,1195.2,573.38,1204.8,570.36,1208.46z"/>
		<path class="st34" d="M492.08,1252.21c1.79,4.18,8.57,11.17,12.8,13.09c4.52,2.05,9.68,0.23,13.17-2.94
			c3.35-3.05,8.72-9.43,9.63-14.1l0.98-7.68c5-7.97-13.6-14.08-18.41-14.22C497.52,1225.99,486.8,1239.9,492.08,1252.21z
			 M502.66,1241.21c3.09-4.96,12.49-2.37,14.5,1.92c0.71,1.53-1.21,11.01-5.19,11.42C503.42,1255.44,498.67,1247.62,502.66,1241.21z
			"/>
		<path class="st34" d="M516.47,1213.47c2.47-1.17,4.14-2.8,6.91-7.43c3.72-7.78-4.8-20.7-13-21.73
			c-11.77-1.47-18.23,11.47-15.75,21.52C497.11,1215.9,508.33,1217.33,516.47,1213.47z M511.68,1194.63
			c1.11,0.42,4.82,6.12,3.03,8.29c-3.85,4.65-10.09,3.07-11.25-2.11C502.56,1196.8,508.55,1193.46,511.68,1194.63z"/>
		<path class="st34" d="M443.49,1166.67c2.3,0.51,5.3,1.26,7.68,1.06c2.54-0.21,4.96-1.92,6.85-3.54c2.28-1.96,3.97-4.92,5.56-7.4
			c1.56-2.44,1.74-5.32,5.34-9.95c1-5.27-3.6-11.8-7.36-15c-5.48-4.66-14.49-7.74-21.63-5.95c-15.18,3.8-25.21,33.07-6.33,38.77
			C436.7,1165.59,440.28,1165.96,443.49,1166.67z M442.62,1138.07c5.29-2.93,12.49,4.16,12.13,9.06c-0.13,1.74-6.65,9.34-10.46,7.7
			C436.13,1151.32,435.78,1141.86,442.62,1138.07z"/>
		<path class="st34" d="M565.26,1194.5c-5.27-1.97-15.36,3.66-13.85,10.41c1.95,8.73,12.46,11.39,18.95,3.55
			C573.38,1204.8,567.13,1195.2,565.26,1194.5z"/>
		<path class="st34" d="M412,1207.27c0.91-1.21,1.16-4.23,2.82-11.07c11.26-10.67-2.41-26.7-14.36-28.7
			c-14.01-2.34-35.05,14.64-32.06,29.61c2.65,13.28,18,19.96,29.85,17.14C402.74,1213.17,409.08,1211.16,412,1207.27z
			 M386.95,1187.99c2.25-5.46,12.05-4.45,14.77-0.5c0.97,1.4,0.63,11.17-3.27,12.25C390.08,1202.04,384.04,1195.04,386.95,1187.99z"
			/>
		<path class="st34" d="M401.71,1187.49c-2.72-3.95-12.52-4.96-14.77,0.5c-2.9,7.05,3.14,14.05,11.5,11.75
			C402.35,1198.67,402.68,1188.9,401.71,1187.49z"/>
		<path class="st34" d="M407.94,1266.52c1.26,0.26,3.66-0.63,9.49-1.83c12.23,4.77,19.57-11.48,16.79-21.34
			c-3.26-11.57-23.85-21.54-34.23-13.86c-9.21,6.82-8.79,20.98-2.35,29.03C400.08,1261.57,403.91,1265.7,407.94,1266.52z
			 M413.65,1240.4c4.99-0.25,7.75,7.62,5.71,11.13c-0.73,1.25-8.33,4.51-10.55,1.92C404.03,1247.86,407.21,1240.72,413.65,1240.4z"
			/>
		<path class="st34" d="M419.36,1251.52c2.04-3.5-0.72-11.37-5.71-11.13c-6.45,0.32-9.62,7.47-4.85,13.04
			C411.04,1256.04,418.64,1252.77,419.36,1251.52z"/>
		<path class="st34" d="M514.7,1202.91c1.8-2.17-1.91-7.87-3.03-8.29c-3.12-1.17-9.12,2.17-8.22,6.18
			C504.62,1205.99,510.85,1207.57,514.7,1202.91z"/>
		<path class="st34" d="M511.97,1254.56c3.98-0.41,5.9-9.9,5.19-11.42c-2.01-4.3-11.42-6.89-14.5-1.92
			C498.67,1247.62,503.42,1255.44,511.97,1254.56z"/>
		<path class="st34" d="M452.11,1198.19c-7.92,4.38-7.52,15.35,1.94,19.42c4.41,1.9,11.97-6.91,12.11-8.92
			C466.57,1203.01,458.24,1194.8,452.11,1198.19z"/>
		<path class="st34" d="M444.3,1154.84c3.81,1.64,10.33-5.96,10.46-7.7c0.36-4.9-6.84-11.99-12.13-9.06
			C435.78,1141.86,436.13,1151.32,444.3,1154.84z"/>
		<path class="st34" d="M453.11,1251.53c-1.66,2.04-3.03,4.6-4.55,6.8c-1.08,1.57-2.56,3.58-3.14,5.42
			c-0.62,1.97-0.08,4.3,0.56,6.21c0.77,2.31,2.47,4.48,3.84,6.42c1.35,1.91,3.45,2.93,5.81,7.04c3.64,2.36,9.93,0.92,13.48-0.92
			c5.17-2.67,10.23-8.48,11.07-14.37C482,1255.61,463.15,1239.14,453.11,1251.53z M459.74,1272.74c-1.27-0.63-4.96-7.84-2.57-10.18
			c5.13-5.04,12.32-2.4,13.06,3.87C470.81,1271.29,463.3,1274.5,459.74,1272.74z"/>
		<path class="st34" d="M457.18,1262.55c-2.39,2.35,1.3,9.56,2.57,10.18c3.56,1.76,11.06-1.45,10.49-6.31
			C469.5,1260.15,462.31,1257.52,457.18,1262.55z"/>
		<path class="st34" d="M1487.05,1719.07c14.63,7.71,28.82,16.19,42.93,2.95c5.11-4.79,7.09-12.83,8.4-24.73
			c2.83-18.5-21.36-31.42-37.13-26.83c-11.47,3.34-25.03,10.3-26.51,23.63c-0.6,5.46,1.86,13.79,4.35,18.67
			C1481.15,1716.8,1483.1,1716.99,1487.05,1719.07z"/>
		<path class="st34" d="M1444.28,1771.76c-4-3.3-12.34-5.45-17.43-5.64c-9.73-0.38-21.67,6.59-25.99,15.52
			c-2.88,5.95-0.39,14.33,1.44,20.25c6.24,20.15,28.96,19.2,41.83,6.13c4.11-4.18,7.09-7.32,6.34-19.99
			C1450.14,1782.88,1447.67,1774.57,1444.28,1771.76z"/>
		<path class="st34" d="M1545.58,1753.33c-15.03,7.18-23.81,37.64-10.88,50c11.48,10.97,30.72,7.07,40.2-3.61
			c3.59-4.05,8.33-10.25,8.51-15.95c0.06-1.78-1.73-4.84-4.74-12.53C1582.31,1753.42,1558.39,1747.21,1545.58,1753.33z"/>
		<path class="st34" d="M1477.74,1810.33c-12.74-0.36-23.46,13.55-18.18,25.86c1.79,4.18,8.57,11.17,12.8,13.09
			c4.52,2.05,9.68,0.23,13.17-2.94c3.35-3.05,8.72-9.43,9.63-14.1l0.98-7.68C1501.15,1816.59,1482.55,1810.47,1477.74,1810.33z"/>
		<path class="st34" d="M1492.86,1755.79c-11.77-1.47-18.23,11.47-15.75,21.52c2.48,10.06,13.7,11.49,21.84,7.63
			c2.47-1.17,4.14-2.8,6.91-7.43C1509.58,1769.73,1501.06,1756.81,1492.86,1755.79z"/>
		<path class="st34" d="M1449.04,1706.64c-5.48-4.66-14.49-7.74-21.63-5.95c-15.18,3.8-25.21,33.07-6.33,38.77
			c3.11,0.94,6.69,1.31,9.91,2.02c2.3,0.51,5.3,1.26,7.68,1.06c2.54-0.21,4.96-1.92,6.85-3.54c2.28-1.96,3.97-4.92,5.56-7.4
			c1.55-2.44,1.74-5.32,5.34-9.95C1457.41,1716.38,1452.8,1709.84,1449.04,1706.64z"/>
		<path class="st34" d="M1374.34,1783.53c4.49-1.07,10.83-3.09,13.75-6.98c0.91-1.21,1.16-4.23,2.82-11.07
			c11.26-10.67-2.41-26.7-14.36-28.7c-14.01-2.34-35.05,14.64-32.06,29.61C1347.14,1779.67,1362.49,1786.36,1374.34,1783.53z"/>
		<path class="st34" d="M1375.42,1850.51c1.26,0.26,3.66-0.63,9.49-1.83c12.23,4.77,19.57-11.48,16.79-21.34
			c-3.26-11.57-23.85-21.54-34.23-13.86c-9.21,6.82-8.79,20.98-2.35,29.03C1367.56,1845.56,1371.39,1849.68,1375.42,1850.51z"/>
		<path class="st34" d="M1454.22,1864.85c-7.81,12.57,1.51,27.9,18.25,26.17c7.81-0.81,11.57-19.4,10.17-22.4
			C1478.72,1860.19,1460.27,1855.12,1454.22,1864.85z"/>
		<path class="st34" d="M1327.23,1793.36c-15.62,8.64-14.82,30.25,3.83,38.28c8.69,3.74,23.59-13.61,23.88-17.59
			C1355.74,1802.86,1339.31,1786.68,1327.23,1793.36z"/>
		<path class="st34" d="M1420.59,1835.52c-1.66,2.04-3.03,4.6-4.55,6.8c-1.08,1.57-2.56,3.58-3.14,5.42
			c-0.62,1.97-0.08,4.3,0.56,6.21c0.77,2.31,2.47,4.48,3.84,6.42c1.35,1.91,3.45,2.93,5.81,7.04c3.64,2.36,9.93,0.92,13.48-0.92
			c5.17-2.67,10.23-8.48,11.07-14.37C1449.48,1839.59,1430.63,1823.13,1420.59,1835.52z"/>
		<path class="st34" d="M1371.75,1873.02c-6.96,7.82-3.99,29.14,8.75,31.06c16.47,2.48,28.16-13.97,18.92-30.51
			C1395.12,1865.86,1374.23,1870.24,1371.75,1873.02z"/>
		<path class="st34" d="M1511.75,1828.76c-5.74,5.64,3.13,22.95,6.16,24.45c8.54,4.24,26.57-3.49,25.2-15.15
			C1541.34,1822.99,1524.07,1816.67,1511.75,1828.76z"/>
		<path class="st42" d="M618.57,10.79c9.22-3.36,18.49-6.54,26.48-10.79h-67.91c6.24,6,17.57,11.33,25.4,13.45
			C609.55,15.34,611.86,13.24,618.57,10.79z"/>
		<path class="st42" d="M630.1,141.1c30.57,14.22,53.81-13.71,52.14-42.98c-0.53-9.35-1.07-16.26-16.88-28.96
			c-6.47-5.13-18.95-11.12-25.92-10.11c-8.21,1.19-19.69,8.77-25.39,14.6c-10.88,11.11-15.44,32.75-9.49,47.45
			C608.51,130.88,621.12,136.92,630.1,141.1z M625.29,99.47c2.56-10.9,21.23-11.97,27.51-5.39c2.23,2.34,4.56,20.73-2.42,23.92
			C635.4,124.83,621.98,113.55,625.29,99.47z"/>
		<path class="st42" d="M752.39,25.64C768.17,24.5,780.34,13.57,786.67,0H713.3C722.54,15.03,737.2,26.73,752.39,25.64z"/>
		<path class="st42" d="M732.15,110.06c6.88,2.36,22.43,1.83,29.24-1.12c7.27-3.15,10.66-11.22,10.64-18.76
			c-0.02-7.23-1.82-20.44-6.37-26.54l-8.04-9.4c-4.08-14.48-31.27,1-36.59,6.55C706.93,75.48,711.91,103.1,732.15,110.06z
			 M748.31,70.61c2.58,0.79,11.75,13.24,7.97,18.4c-8.12,11.07-22.48,8.31-25.8-3.29C727.9,76.75,741.06,68.38,748.31,70.61z"/>
		<path class="st42" d="M679.96,57.29c14.58,7.85,28.3-3.9,32.46-17.69c1.26-4.18,1.12-7.91-1.39-16.15
			c-5.23-12.75-29.68-16.52-39.69-7.91C656.99,27.92,665.4,49.44,679.96,57.29z M684.96,25.07c1.68-0.87,12.42,0.85,13.06,5.31
			c1.38,9.55-7.18,15.25-14.56,11.06C677.75,38.2,680.23,27.52,684.96,25.07z"/>
		<path class="st42" d="M565.68,85.43c4.45-2.68,8.73-6.52,13.03-9.57c3.07-2.18,7.18-4.93,9.49-7.96
			c2.48-3.24,3.04-7.94,3.14-11.91c0.12-4.81-1.57-9.98-2.81-14.52c-1.22-4.46-4.43-7.77-6.06-16.99
			c-5.16-6.84-17.84-8.39-25.67-7.37c-11.4,1.49-24.71,8.87-30.25,19.24C514.75,58.4,538.68,101.68,565.68,85.43z M543.89,46.22
			c2.21-9.41,18.33-10.33,23.75-4.66c1.93,2.02,3.94,17.9-2.09,20.65C552.62,68.12,541.03,58.38,543.89,46.22z"/>
		<path class="st42" d="M534.21,197.47c18.57,11.1,42.96,0.09,52.32-16.98c3.55-6.47,7.96-16.15,6.48-23.77
			c-0.46-2.38-3.76-5.91-10.09-15.22c-0.56-24.78-34.22-25.79-49.4-13.77C515.72,141.82,513.27,184.96,534.21,197.47z
			 M558.55,147.69c2.7,0.36,13.92,11.24,11,17.01c-6.25,12.38-21.02,12.03-26.26,1.02C539.24,157.21,550.96,146.68,558.55,147.69z"
			/>
		<path class="st41" d="M569.56,164.7c2.91-5.77-8.3-16.65-11-17.01c-7.59-1.02-19.31,9.51-15.25,18.03
			C548.54,176.73,563.31,177.08,569.56,164.7z"/>
		<path class="st42" d="M659.59,169.11c-17.21-8.54-51.11,5.15-53.13,25.68c-1.8,18.22,15.43,32.92,31.87,33.92
			c6.23,0.38,15.23,0.27,20.53-3.62c1.66-1.21,3.17-5.01,8.01-13.21C685.63,202.52,674.26,176.39,659.59,169.11z M644.29,210.03
			c-11.73-0.32-16.79-11.75-10.25-19.73c5.06-6.18,17.34-1.01,19.3,5.17C654.04,197.67,649.76,210.18,644.29,210.03z"/>
		<path class="st41" d="M634.04,190.3c-6.53,7.98-1.48,19.41,10.25,19.73c5.47,0.15,9.75-12.36,9.05-14.56
			C651.38,189.29,639.09,184.12,634.04,190.3z"/>
		<path class="st41" d="M683.47,41.44c7.38,4.18,15.94-1.51,14.56-11.06c-0.64-4.45-11.38-6.18-13.06-5.31
			C680.23,27.52,677.75,38.2,683.47,41.44z"/>
		<path class="st41" d="M756.28,89.01c3.79-5.16-5.39-17.61-7.97-18.4c-7.25-2.23-20.41,6.14-17.84,15.12
			C733.79,97.33,748.16,100.08,756.28,89.01z"/>
		<path class="st41" d="M650.37,117.99c6.98-3.19,4.65-21.58,2.42-23.92c-6.28-6.57-24.95-5.51-27.51,5.39
			C621.98,113.55,635.4,124.83,650.37,117.99z"/>
		<path class="st41" d="M565.55,62.21c6.03-2.75,4.02-18.63,2.09-20.65c-5.42-5.68-21.54-4.75-23.75,4.66
			C541.03,58.38,552.62,68.12,565.55,62.21z"/>
		<path class="st42" d="M689.56,155.5c0.64,4.15,2.21,8.53,3.18,12.68c0.69,2.97,1.5,6.88,3.05,9.54c1.66,2.85,5.01,4.71,7.95,6
			c3.56,1.57,7.95,1.88,11.73,2.34c3.71,0.45,7.18-0.94,14.58,0.66c6.7-1.77,11.74-10.79,13.37-16.96
			c2.38-8.99,0.92-21.21-5.15-28.54C725.37,125.65,685.65,130.31,689.56,155.5z M721.8,170.39c-2.1,0.83-14.6-2.53-14.82-7.88
			c-0.46-11.48,10.37-17.18,18.6-11.32C731.95,155.72,727.7,168.07,721.8,170.39z"/>
		<path class="st41" d="M725.58,151.19c-8.23-5.86-19.06-0.16-18.6,11.32c0.22,5.35,12.72,8.71,14.82,7.88
			C727.7,168.07,731.95,155.72,725.58,151.19z"/>
		<path class="st42" d="M668.11,1963.1c-0.2-11.19-7.59-22.17-20.3-36.48c-18.88-23.21-60.14-8.39-71.61,15.21
			c-8.35,17.17-14.64,40.7-0.44,56.75c0.42,0.48,0.89,0.95,1.38,1.42h67.91C658.59,1992.8,668.46,1982.54,668.11,1963.1z
			 M608.08,1978.64c-9.62-5.45-5.45-23.45,2.52-27.58c2.84-1.47,20.93,1.44,22.01,8.94
			C634.94,1976.09,620.52,1985.68,608.08,1978.64z"/>
		<path class="st41" d="M610.61,1951.06c-7.98,4.13-12.15,22.12-2.52,27.58c12.44,7.05,26.86-2.55,24.54-18.64
			C631.53,1952.49,613.44,1949.59,610.61,1951.06z"/>
		<path class="st42" d="M791.23,1974.14c-0.94-8.6-3.21-20.86-9.77-27.19c-2.04-1.98-7.59-3.15-19.93-7.83
			c-17.21-23.42-50.21-1.75-56.71,20c-3.56,11.93,0.37,27.69,8.48,40.89h73.36C790.48,1991.82,792.16,1982.67,791.23,1974.14z
			 M739.76,1989.03c-9.63-5.45-5.45-23.45,2.52-27.58c2.84-1.47,20.93,1.44,22.01,8.94C766.63,1986.48,752.2,1996.07,739.76,1989.03
			z"/>
		<path class="st41" d="M742.29,1961.45c-7.98,4.13-12.15,22.12-2.52,27.58c12.44,7.05,26.86-2.55,24.54-18.64
			C763.21,1962.88,745.13,1959.98,742.29,1961.45z"/>
		<path class="st46" d="M1116.52,611.84c37.34-24.39,130.79-26.84,130.54-160.79c-35.27,3.93-97.97,70.39-124.32,122.14
			c11.23-37.71,20.88-77.13,29.89-116.08c12.53-54.16-14.96-97.58-15.39-151.23c-83.05,80.2-62.12,176.57-35.22,270.54
			c-8.63-17.07-16.92-36.67-28.55-53.22c-22.93-32.64-88.18-46.81-87.48-90.1c-16.32,22.95-17.27,64.9-9.2,91.41
			C991.19,571.8,1059.05,602.81,1116.52,611.84z"/>
		<path class="st40" d="M1344.95,898.36c-21.95,88.64,107.22,133.67,253.74,119.26C1550.37,937.82,1441.33,869.42,1344.95,898.36z"
			/>
	</g>
</g>
</svg>
